<?xml version="1.0" encoding="UTF-8"?><svg id="_レイヤー_1" xmlns="http://www.w3.org/2000/svg" viewBox="0 0 614.26 594.11"><rect x="-68.33" y="-78.87" width="753.79" height="751.85" style="fill:#e8e8e8;"/><g><rect x="199.81" y="467.16" width="215.01" height="61.05" style="fill:#8a2922;"/><g><path d="m296.02,467.16h-1.38v-5.44c0-.45.03-.99.08-1.63h-.02c-.09.37-.16.63-.23.79l-2.51,6.28h-.96l-2.51-6.23c-.07-.18-.14-.46-.22-.84h-.02c.03.34.05.88.05,1.65v5.43h-1.29v-8.4h1.96l2.21,5.6c.17.43.28.75.33.96h.03c.14-.44.26-.77.35-.98l2.25-5.57h1.89v8.4Z" style="fill:#8a2922;"/><path d="m299.52,467.16h-1.44v-8.4h1.44v8.4Z" style="fill:#8a2922;"/><path d="m307.87,467.16h-1.67l-1.72-3.08c-.05-.09-.11-.23-.17-.4h-.02c-.04.09-.09.22-.18.4l-1.78,3.08h-1.68l2.75-4.22-2.53-4.18h1.71l1.52,2.84c.1.19.19.38.26.56h.02c.11-.25.21-.44.29-.59l1.58-2.81h1.57l-2.59,4.17,2.64,4.24Z" style="fill:#8a2922;"/><path d="m313.73,467.16h-4.72v-8.4h4.53v1.18h-3.13v2.38h2.89v1.18h-2.89v2.48h3.32v1.18Z" style="fill:#8a2922;"/><path d="m321.72,467.16h-1.63l-1.34-2.25c-.12-.21-.24-.38-.35-.53s-.23-.27-.35-.36-.25-.16-.39-.21-.3-.06-.47-.06h-.56v3.41h-1.39v-8.4h2.77c.39,0,.76.05,1.09.14s.62.24.87.42.44.43.58.71.21.61.21.99c0,.3-.04.57-.13.82s-.21.47-.38.66-.36.36-.59.5-.49.24-.77.32v.02c.15.09.29.18.4.28s.22.21.32.32.2.23.3.37.21.3.33.48l1.49,2.36Zm-5.1-7.27v2.73h1.16c.21,0,.41-.03.59-.1s.34-.16.47-.29.24-.28.31-.46.11-.38.11-.6c0-.4-.13-.72-.38-.94s-.62-.34-1.1-.34h-1.17Z" style="fill:#8a2922;"/></g><g><path d="m311.87,488.18h-1.38v-5.44c0-.45.03-.99.08-1.63h-.02c-.09.37-.16.63-.23.79l-2.51,6.28h-.96l-2.51-6.23c-.07-.18-.14-.46-.22-.84h-.02c.03.34.05.88.05,1.65v5.43h-1.29v-8.4h1.96l2.21,5.6c.17.43.28.75.33.96h.03c.14-.44.26-.77.35-.98l2.25-5.57h1.89v8.4Z" style="fill:#e8e8e8;"/><path d="m320.84,488.18h-1.53l-.76-2.14h-3.3l-.73,2.14h-1.52l3.15-8.4h1.57l3.12,8.4Zm-2.65-3.28l-1.17-3.35c-.04-.11-.07-.29-.11-.53h-.02c-.04.22-.07.4-.12.53l-1.15,3.35h2.57Z" style="fill:#e8e8e8;"/><path d="m323.43,488.18h-1.44v-8.4h1.44v8.4Z" style="fill:#e8e8e8;"/><path d="m332.62,488.18h-1.52l-4.01-6.18c-.1-.16-.19-.32-.25-.49h-.04c.03.18.05.56.05,1.15v5.51h-1.35v-8.4h1.62l3.88,6.03c.16.25.27.42.32.52h.02c-.04-.22-.06-.6-.06-1.13v-5.41h1.34v8.4Z" style="fill:#e8e8e8;"/><path d="m347.02,488.18h-1.38v-5.44c0-.45.03-.99.08-1.63h-.02c-.09.37-.16.63-.23.79l-2.51,6.28h-.96l-2.51-6.23c-.07-.18-.14-.46-.22-.84h-.02c.03.34.05.88.05,1.65v5.43h-1.29v-8.4h1.96l2.21,5.6c.17.43.28.75.33.96h.03c.14-.44.26-.77.35-.98l2.25-5.57h1.89v8.4Z" style="fill:#e8e8e8;"/><path d="m350.52,488.18h-1.44v-8.4h1.44v8.4Z" style="fill:#e8e8e8;"/><path d="m358.87,488.18h-1.67l-1.72-3.08c-.05-.09-.11-.23-.17-.4h-.02c-.04.09-.09.22-.18.4l-1.78,3.08h-1.68l2.75-4.22-2.53-4.18h1.71l1.52,2.84c.1.19.19.38.26.56h.02c.11-.25.21-.44.29-.59l1.58-2.81h1.57l-2.59,4.17,2.64,4.24Z" style="fill:#e8e8e8;"/><path d="m366.78,488.32c-1.21,0-2.18-.39-2.91-1.18s-1.09-1.81-1.09-3.06c0-1.35.37-2.43,1.11-3.23s1.75-1.21,3.02-1.21c1.18,0,2.13.39,2.85,1.17s1.08,1.8,1.08,3.06c0,1.37-.37,2.46-1.11,3.25s-1.72,1.2-2.96,1.2Zm.06-7.46c-.77,0-1.4.29-1.88.86s-.72,1.33-.72,2.27.23,1.69.7,2.26,1.08.86,1.84.86c.8,0,1.44-.27,1.9-.81s.7-1.3.7-2.28-.23-1.78-.68-2.33-1.07-.82-1.87-.82Z" style="fill:#e8e8e8;"/><path d="m378.85,484.78c0,2.36-1.12,3.54-3.35,3.54s-3.21-1.13-3.21-3.4v-5.14h1.39v4.85c0,1.65.64,2.47,1.92,2.47s1.85-.79,1.85-2.38v-4.94h1.39v5Z" style="fill:#e8e8e8;"/><path d="m386.21,480.96h-2.41v7.22h-1.39v-7.22h-2.41v-1.18h6.22v1.18Z" style="fill:#e8e8e8;"/><path d="m388.83,485.13v3.05h-1.39v-8.4h2.55c.96,0,1.71.22,2.24.67s.8,1.08.8,1.9-.28,1.48-.83,2-1.3.78-2.25.78h-1.12Zm0-4.21v3.07h.9c.6,0,1.05-.14,1.37-.42s.47-.67.47-1.17c0-.99-.57-1.48-1.72-1.48h-1.01Z" style="fill:#e8e8e8;"/><path d="m400.92,484.78c0,2.36-1.12,3.54-3.35,3.54s-3.21-1.13-3.21-3.4v-5.14h1.39v4.85c0,1.65.64,2.47,1.92,2.47s1.85-.79,1.85-2.38v-4.94h1.39v5Z" style="fill:#e8e8e8;"/><path d="m408.29,480.96h-2.41v7.22h-1.39v-7.22h-2.41v-1.18h6.22v1.18Z" style="fill:#e8e8e8;"/></g><g><path d="m240.39,488.18h-1.38v-5.44c0-.45.03-.99.08-1.63h-.02c-.09.37-.16.63-.23.79l-2.51,6.28h-.96l-2.51-6.23c-.07-.18-.14-.46-.22-.84h-.02c.03.34.05.88.05,1.65v5.43h-1.29v-8.4h1.96l2.21,5.6c.17.43.28.75.33.96h.03c.14-.44.26-.77.35-.98l2.25-5.57h1.89v8.4Z" style="fill:#e8e8e8;"/><path d="m243.89,488.18h-1.44v-8.4h1.44v8.4Z" style="fill:#e8e8e8;"/><path d="m251.82,487.82c-.63.33-1.42.49-2.36.49-1.22,0-2.2-.38-2.93-1.15s-1.1-1.78-1.1-3.03c0-1.34.41-2.43,1.24-3.26s1.87-1.24,3.13-1.24c.81,0,1.49.12,2.02.35v1.38c-.57-.34-1.19-.5-1.88-.5-.91,0-1.65.29-2.21.87s-.85,1.36-.85,2.33.26,1.66.79,2.21,1.22.82,2.08.82c.79,0,1.48-.19,2.06-.56v1.29Z" style="fill:#e8e8e8;"/></g><circle cx="353.85" cy="473.09" r="2.37" style="fill:#e8e8e8;"/><circle cx="371.39" cy="473.09" r="2.37" style="fill:#e8e8e8;"/><circle cx="215.17" cy="473.09" r="2.37" style="fill:#e8e8e8;"/><circle cx="232.71" cy="473.09" r="2.37" style="fill:#e8e8e8;"/><circle cx="249.86" cy="473.09" r="2.37" style="fill:#e8e8e8;"/><circle cx="267.4" cy="473.09" r="2.37" style="fill:#e8e8e8;"/><g><path d="m256.94,537.6h-1.53l-.76-2.14h-3.3l-.73,2.14h-1.52l3.15-8.4h1.57l3.12,8.4Zm-2.65-3.28l-1.17-3.35c-.04-.11-.07-.29-.11-.53h-.02c-.04.22-.07.4-.12.53l-1.15,3.35h2.57Z" style="fill:#8a2922;"/><path d="m262.74,537.6h-4.65v-8.4h1.39v7.22h3.26v1.18Z" style="fill:#8a2922;"/><path d="m269.35,530.38h-2.41v7.22h-1.39v-7.22h-2.41v-1.18h6.22v1.18Z" style="fill:#8a2922;"/><path d="m274.04,537.74c-1.21,0-2.18-.39-2.91-1.18s-1.09-1.81-1.09-3.06c0-1.35.37-2.43,1.11-3.23s1.75-1.21,3.02-1.21c1.18,0,2.13.39,2.85,1.17s1.08,1.8,1.08,3.06c0,1.37-.37,2.46-1.11,3.25s-1.72,1.2-2.96,1.2Zm.06-7.46c-.77,0-1.4.29-1.88.86s-.72,1.33-.72,2.27.23,1.69.7,2.26,1.08.86,1.84.86c.8,0,1.44-.27,1.9-.81s.7-1.3.7-2.28-.23-1.78-.68-2.33-1.07-.82-1.87-.82Z" style="fill:#8a2922;"/><path d="m288.68,529.8l-4.61,6.62h4.55v1.18h-6.5v-.64l4.62-6.58h-4.27v-1.18h6.2v.61Z" style="fill:#8a2922;"/><path d="m299.01,537.6h-1.38v-5.44c0-.45.03-.99.08-1.63h-.02c-.09.37-.16.63-.23.79l-2.51,6.28h-.96l-2.51-6.23c-.07-.18-.14-.46-.22-.84h-.02c.03.34.05.88.05,1.65v5.43h-1.29v-8.4h1.96l2.21,5.6c.17.43.28.75.33.96h.03c.14-.44.26-.77.35-.98l2.25-5.57h1.89v8.4Z" style="fill:#8a2922;"/><path d="m307.36,537.6h-1.67l-1.72-3.08c-.05-.09-.11-.23-.17-.4h-.02c-.04.09-.09.22-.18.4l-1.78,3.08h-1.68l2.75-4.22-2.53-4.18h1.71l1.52,2.84c.1.19.19.38.26.56h.02c.11-.25.21-.44.29-.59l1.58-2.81h1.57l-2.59,4.17,2.64,4.24Z" style="fill:#8a2922;"/><path d="m311.08,529.01v8.59h-1.36v-6.93c-.25.18-.51.33-.79.45s-.61.23-.97.33v-1.16c.23-.07.45-.15.66-.23s.42-.17.62-.28.41-.21.62-.34.42-.27.65-.43h.57Z" style="fill:#8a2922;"/><path d="m318.54,534.9c0,.42-.07.81-.21,1.15s-.33.65-.58.9-.54.45-.88.59-.7.21-1.1.21c-.42,0-.81-.08-1.16-.25s-.66-.41-.91-.73-.45-.73-.59-1.21-.21-1.04-.21-1.68c0-.78.09-1.47.28-2.07s.44-1.11.76-1.51.71-.71,1.14-.93.91-.32,1.42-.32c.32,0,.6.02.86.06s.47.1.62.18v1.22c-.2-.1-.41-.19-.64-.26s-.49-.11-.78-.11c-.33,0-.63.07-.91.2s-.52.33-.72.58-.36.57-.47.95-.17.81-.18,1.3h.04c.18-.28.42-.5.73-.66s.67-.24,1.08-.24c.37,0,.7.06.99.18s.55.29.76.52.37.5.48.82.17.68.17,1.09Zm-1.37.11c0-.24-.03-.46-.08-.66s-.14-.37-.26-.51-.26-.25-.43-.33-.38-.12-.61-.12-.44.04-.62.13-.33.19-.45.33-.21.29-.27.47-.09.36-.09.54c0,.2.03.4.08.61s.14.4.26.57.27.31.45.42.4.17.65.17c.22,0,.42-.04.59-.12s.32-.2.43-.34.2-.32.26-.51.09-.41.09-.64Z" style="fill:#8a2922;"/><path d="m324.43,529.2v5.43h1.25v1.13h-1.25v1.85h-1.32v-1.85h-3.8v-1.14c.34-.39.7-.81,1.06-1.26s.71-.91,1.04-1.38.64-.94.93-1.42.53-.93.72-1.36h1.37Zm-1.32,5.43v-3.53c-.43.77-.85,1.43-1.26,2s-.81,1.08-1.17,1.52h2.43Z" style="fill:#8a2922;"/><path d="m331.49,530.38h-3.14v2.53h2.89v1.18h-2.89v3.52h-1.39v-8.4h4.54v1.18Z" style="fill:#8a2922;"/><path d="m339.26,537.6h-1.67l-1.72-3.08c-.05-.09-.11-.23-.17-.4h-.02c-.04.09-.09.22-.18.4l-1.78,3.08h-1.68l2.75-4.22-2.53-4.18h1.71l1.52,2.84c.1.19.19.38.26.56h.02c.11-.25.21-.44.29-.59l1.58-2.81h1.57l-2.59,4.17,2.64,4.24Z" style="fill:#8a2922;"/><path d="m350.17,534.2c0,2.36-1.12,3.54-3.35,3.54s-3.21-1.13-3.21-3.4v-5.14h1.39v4.85c0,1.65.64,2.47,1.92,2.47s1.85-.79,1.85-2.38v-4.94h1.39v5Z" style="fill:#8a2922;"/><path d="m351.76,537.26v-1.44c.13.12.28.22.46.32s.37.17.57.24.4.11.6.15.38.05.55.05c.59,0,1.02-.1,1.31-.29s.43-.48.43-.85c0-.2-.05-.37-.14-.52s-.23-.28-.4-.4-.37-.24-.61-.35-.48-.23-.75-.35c-.29-.15-.55-.31-.8-.46s-.46-.33-.64-.52-.32-.4-.43-.64-.16-.52-.16-.84c0-.39.09-.74.27-1.03s.41-.53.7-.72.62-.33.99-.42.75-.14,1.14-.14c.88,0,1.52.1,1.92.3v1.38c-.48-.34-1.09-.52-1.84-.52-.21,0-.41.02-.62.06s-.39.1-.55.19-.29.21-.4.35-.15.31-.15.51c0,.19.04.35.12.49s.19.26.34.38.33.22.55.33.47.22.75.35c.29.15.57.31.83.48s.49.35.69.56.35.43.47.68.17.53.17.85c0,.43-.09.79-.26,1.08s-.4.53-.69.71-.63.32-1,.4-.78.12-1.2.12c-.14,0-.31-.01-.52-.03s-.42-.05-.63-.09-.42-.09-.61-.15-.35-.12-.46-.2Z" style="fill:#8a2922;"/><path d="m358.68,537.6v-8.4h2.67c.81,0,1.46.18,1.93.53s.71.82.71,1.39c0,.48-.13.89-.4,1.24s-.64.6-1.12.75v.02c.58.07,1.04.28,1.39.64s.52.83.52,1.41c0,.72-.28,1.3-.85,1.75s-1.28.67-2.14.67h-2.7Zm1.39-7.28v2.39h.9c.48,0,.86-.11,1.14-.34s.41-.55.41-.97c0-.72-.48-1.08-1.44-1.08h-1.01Zm0,3.51v2.66h1.19c.52,0,.92-.12,1.2-.36s.42-.57.42-.99c0-.87-.6-1.31-1.81-1.31h-1.01Z" style="fill:#8a2922;"/></g></g><line x1="214.94" y1="396.37" x2="214.94" y2="473.09" style="fill:none; stroke:#661c1a; stroke-linecap:round; stroke-miterlimit:10; stroke-width:1.42px;"/><line x1="232.47" y1="473.09" x2="232.47" y2="396.37" style="fill:none; stroke:#661c1a; stroke-linecap:round; stroke-miterlimit:10; stroke-width:1.42px;"/><line x1="249.63" y1="396.37" x2="249.63" y2="473.09" style="fill:none; stroke:#661c1a; stroke-linecap:round; stroke-miterlimit:10; stroke-width:1.42px;"/><line x1="267.16" y1="473.09" x2="267.16" y2="396.37" style="fill:none; stroke:#661c1a; stroke-linecap:round; stroke-miterlimit:10; stroke-width:1.42px;"/><line x1="284" y1="396.37" x2="284" y2="420.23" style="fill:none; stroke:#661c1a; stroke-linecap:round; stroke-miterlimit:10; stroke-width:1.42px;"/><line x1="301.54" y1="420.23" x2="301.54" y2="396.37" style="fill:none; stroke:#661c1a; stroke-linecap:round; stroke-miterlimit:10; stroke-width:1.42px;"/><line x1="319.97" y1="396.37" x2="319.97" y2="420.23" style="fill:none; stroke:#661c1a; stroke-linecap:round; stroke-miterlimit:10; stroke-width:1.42px;"/><line x1="337.51" y1="420.23" x2="337.51" y2="396.37" style="fill:none; stroke:#661c1a; stroke-linecap:round; stroke-miterlimit:10; stroke-width:1.42px;"/><line x1="353.83" y1="396.37" x2="353.83" y2="473.09" style="fill:none; stroke:#661c1a; stroke-linecap:round; stroke-miterlimit:10; stroke-width:1.42px;"/><line x1="371.37" y1="473.09" x2="371.37" y2="396.23" style="fill:none; stroke:#661c1a; stroke-linecap:round; stroke-miterlimit:10; stroke-width:1.42px;"/><line x1="387.69" y1="420.23" x2="387.69" y2="396.23" style="fill:none; stroke:#661c1a; stroke-miterlimit:10; stroke-width:1.42px;"/><line x1="405.23" y1="420.23" x2="405.23" y2="396.37" style="fill:none; stroke:#661c1a; stroke-miterlimit:10; stroke-width:1.42px;"/><g><rect x="199.81" y="316.43" width="214.27" height="79.94" style="fill:#8a2922;"/><path d="m277.79,322.77v8.59h-1.36v-6.93c-.25.18-.51.33-.79.45s-.61.23-.97.33v-1.16c.23-.07.45-.15.66-.23s.42-.17.62-.28.41-.21.62-.34.42-.27.65-.43h.57Z" style="fill:#e8e8e8;"/><path d="m297.13,331.36h-5.27v-.65c0-.27.04-.51.11-.75s.17-.45.3-.66.27-.4.44-.58.35-.36.54-.53.39-.33.59-.49.39-.32.59-.48c.18-.15.34-.3.49-.45s.28-.3.38-.45.19-.32.25-.5.09-.36.09-.57c0-.22-.03-.42-.1-.58s-.16-.3-.29-.42-.27-.2-.44-.25-.35-.08-.55-.08c-.34,0-.69.08-1.05.24s-.7.4-1.03.72v-1.31c.17-.13.35-.24.52-.34s.36-.18.54-.24.38-.11.59-.14.43-.05.66-.05c.38,0,.72.05,1.03.15s.57.25.79.44.39.43.51.72.18.62.18,1c0,.34-.04.65-.13.92s-.2.52-.36.76-.34.46-.56.67-.46.43-.73.65c-.23.18-.45.36-.68.54s-.43.34-.61.51-.33.33-.44.5-.17.33-.17.5v.03h3.79v1.17Z" style="fill:#e8e8e8;"/><path d="m311.42,331.05v-1.28c.55.43,1.16.65,1.85.65.56,0,1-.13,1.34-.38s.5-.6.5-1.03c0-.95-.73-1.43-2.19-1.43h-.65v-1.09h.62c1.29,0,1.94-.45,1.94-1.35,0-.83-.5-1.24-1.51-1.24-.56,0-1.09.2-1.59.6v-1.21c.57-.32,1.24-.48,2.02-.48s1.34.19,1.79.56.67.86.67,1.44c0,1.11-.56,1.82-1.69,2.13v.02c.61.06,1.08.27,1.44.64s.53.82.53,1.37c0,.75-.28,1.36-.85,1.83s-1.31.69-2.24.69c-.83,0-1.5-.15-1.99-.45Z" style="fill:#e8e8e8;"/><path d="m333.27,322.96v5.43h1.25v1.13h-1.25v1.85h-1.32v-1.85h-3.8v-1.14c.34-.39.7-.81,1.06-1.26s.71-.91,1.04-1.38.64-.94.93-1.42.53-.93.72-1.36h1.37Zm-1.32,5.43v-3.53c-.43.77-.85,1.43-1.26,2s-.81,1.08-1.17,1.52h2.43Z" style="fill:#e8e8e8;"/><path d="m210.09,398.13v8.59h-1.36v-6.93c-.25.18-.51.33-.79.45s-.61.23-.97.33v-1.16c.23-.07.45-.15.66-.23s.42-.17.62-.28.41-.21.62-.34.42-.27.65-.43h.57Z" style="fill:#8a2922;"/><path d="m228.9,406.72h-5.27v-.65c0-.27.04-.51.11-.75s.17-.45.3-.66.27-.4.44-.58.35-.36.54-.53.39-.33.59-.49.39-.32.59-.48c.18-.15.34-.3.49-.45s.28-.3.38-.45.19-.32.25-.5.09-.36.09-.57c0-.22-.03-.42-.1-.58s-.16-.3-.29-.42-.27-.2-.44-.25-.35-.08-.55-.08c-.34,0-.69.08-1.05.24s-.7.4-1.03.72v-1.31c.17-.13.35-.24.52-.34s.36-.18.54-.24.38-.11.59-.14.43-.05.66-.05c.38,0,.72.05,1.03.15s.57.25.79.44.39.43.51.72.18.62.18,1c0,.34-.04.65-.13.92s-.2.52-.36.76-.34.46-.56.67-.46.43-.73.65c-.23.18-.45.36-.68.54s-.43.34-.61.51-.33.33-.44.5-.17.33-.17.5v.03h3.79v1.17Z" style="fill:#8a2922;"/><path d="m242,406.41v-1.28c.55.43,1.16.65,1.85.65.56,0,1-.13,1.34-.38s.5-.6.5-1.03c0-.95-.73-1.43-2.19-1.43h-.65v-1.09h.62c1.29,0,1.94-.45,1.94-1.35,0-.83-.5-1.24-1.51-1.24-.56,0-1.09.2-1.59.6v-1.21c.57-.32,1.24-.48,2.02-.48s1.34.19,1.79.56.67.86.67,1.44c0,1.11-.56,1.82-1.69,2.13v.02c.61.06,1.08.27,1.44.64s.53.82.53,1.37c0,.75-.28,1.36-.85,1.83s-1.31.69-2.24.69c-.83,0-1.5-.15-1.99-.45Z" style="fill:#8a2922;"/><path d="m263.46,398.32v5.43h1.25v1.13h-1.25v1.85h-1.32v-1.85h-3.8v-1.14c.34-.39.7-.81,1.06-1.26s.71-.91,1.04-1.38.64-.94.93-1.42.53-.93.72-1.36h1.37Zm-1.32,5.43v-3.53c-.43.77-.85,1.43-1.26,2s-.81,1.08-1.17,1.52h2.43Z" style="fill:#8a2922;"/><circle cx="283.72" cy="326.77" r="2.37" style="fill:#e8e8e8;"/><circle cx="301.26" cy="326.77" r="2.37" style="fill:#e8e8e8;"/><circle cx="320.53" cy="326.77" r="2.37" style="fill:#e8e8e8;"/><circle cx="338.06" cy="326.77" r="2.37" style="fill:#e8e8e8;"/><path d="m274.71,358.74v-1.31c.55.37,1.11.56,1.68.56s1.03-.15,1.38-.44.52-.68.52-1.16-.18-.85-.53-1.11-.86-.4-1.52-.4c-.23,0-.69.02-1.38.07l.3-4.42h4.14v1.16h-3.01l-.14,2.1c.27-.02.51-.02.73-.02.89,0,1.58.23,2.07.69s.73,1.08.73,1.88c0,.83-.28,1.5-.83,2s-1.32.75-2.29.75c-.82,0-1.43-.12-1.83-.35Z" style="fill:#e8e8e8;"/><path d="m297.45,356.23c0,.42-.07.81-.21,1.15s-.33.65-.58.9-.54.45-.88.59-.7.21-1.1.21c-.42,0-.81-.08-1.16-.25s-.66-.41-.91-.73-.45-.73-.59-1.21-.21-1.04-.21-1.68c0-.78.09-1.47.28-2.07s.44-1.11.76-1.51.71-.71,1.14-.93.91-.32,1.42-.32c.32,0,.6.02.86.06s.47.1.62.18v1.22c-.2-.1-.41-.19-.64-.26s-.49-.11-.78-.11c-.33,0-.63.07-.91.2s-.52.33-.72.58-.36.57-.47.95-.17.81-.18,1.3h.04c.18-.28.42-.5.73-.66s.67-.24,1.08-.24c.37,0,.7.06.99.18s.55.29.76.52.37.5.48.82.17.68.17,1.09Zm-1.37.11c0-.24-.03-.46-.08-.66s-.14-.37-.26-.51-.26-.25-.43-.33-.38-.12-.61-.12-.44.04-.62.13-.33.19-.45.33-.21.29-.27.47-.09.36-.09.54c0,.2.03.4.08.61s.14.4.26.57.27.31.45.42.4.17.65.17c.22,0,.42-.04.59-.12s.32-.2.43-.34.2-.32.26-.51.09-.41.09-.64Z" style="fill:#e8e8e8;"/><path d="m316.47,351.21c-.35.64-.68,1.28-1,1.91s-.6,1.26-.85,1.9-.47,1.28-.66,1.92-.33,1.31-.43,1.98h-1.42c.09-.6.23-1.2.4-1.8s.38-1.2.61-1.8.5-1.2.79-1.81.6-1.22.93-1.83h-3.98v-1.16h5.61v.68Z" style="fill:#e8e8e8;"/><path d="m328.35,356.59c0-.24.03-.48.09-.7s.15-.44.27-.63.27-.36.46-.52.4-.28.64-.37c-.36-.2-.65-.46-.87-.78s-.32-.67-.32-1.06c0-.31.06-.59.19-.86s.3-.49.53-.68.49-.34.79-.45.64-.16,1-.16.7.05,1,.16.57.26.8.45.4.42.52.68.19.54.19.85c0,.39-.11.74-.32,1.06s-.5.58-.86.78c.24.09.46.22.64.37s.34.32.47.51.22.4.28.63.09.46.09.71c0,.37-.07.7-.21,1.01s-.33.57-.57.78-.54.39-.88.51-.72.18-1.14.18-.79-.06-1.13-.18-.64-.29-.88-.51-.44-.48-.58-.78-.21-.64-.21-1.01Zm1.32-.12c0,.24.04.45.11.64s.17.35.3.49.28.23.47.3.38.11.61.11.41-.04.59-.11.33-.18.47-.31.23-.3.31-.49.11-.4.11-.64c0-.21-.04-.42-.11-.61s-.17-.35-.3-.5-.28-.25-.47-.33-.38-.12-.61-.12c-.21,0-.41.04-.59.11s-.34.18-.47.32-.23.3-.31.5-.11.4-.11.63Zm.29-3.8c0,.18.03.34.09.49s.15.28.25.39.23.2.37.26.3.09.46.09.32-.03.46-.1.27-.15.38-.26.19-.24.25-.39.09-.31.09-.48-.03-.34-.09-.49-.14-.28-.25-.39-.23-.2-.38-.26-.3-.09-.47-.09-.34.03-.48.1-.27.15-.37.27-.18.25-.24.4-.08.31-.08.48Z" style="fill:#e8e8e8;"/><path d="m276.46,406.53v-1.31c.55.37,1.11.56,1.68.56s1.03-.15,1.38-.44.52-.68.52-1.16-.18-.85-.53-1.11-.86-.4-1.52-.4c-.23,0-.69.02-1.38.07l.3-4.42h4.14v1.16h-3.01l-.14,2.1c.27-.02.51-.02.73-.02.89,0,1.58.23,2.07.69s.73,1.08.73,1.88c0,.83-.28,1.5-.83,2s-1.32.75-2.29.75c-.82,0-1.43-.12-1.83-.35Z" style="fill:#8a2922;"/><path d="m298.93,404.02c0,.42-.07.81-.21,1.15s-.33.65-.58.9-.54.45-.88.59-.7.21-1.1.21c-.42,0-.81-.08-1.16-.25s-.66-.41-.91-.73-.45-.73-.59-1.21-.21-1.04-.21-1.68c0-.78.09-1.47.28-2.07s.44-1.11.76-1.51.71-.71,1.14-.93.91-.32,1.42-.32c.32,0,.6.02.86.06s.47.1.62.18v1.22c-.2-.1-.41-.19-.64-.26s-.49-.11-.78-.11c-.33,0-.63.07-.91.2s-.52.33-.72.58-.36.57-.47.95-.17.81-.18,1.3h.04c.18-.28.42-.5.73-.66s.67-.24,1.08-.24c.37,0,.7.06.99.18s.55.29.76.52.37.5.48.82.17.68.17,1.09Zm-1.37.11c0-.24-.03-.46-.08-.66s-.14-.37-.26-.51-.26-.25-.43-.33-.38-.12-.61-.12-.44.04-.62.13-.33.19-.45.33-.21.29-.27.47-.09.36-.09.54c0,.2.03.4.08.61s.14.4.26.57.27.31.45.42.4.17.65.17c.22,0,.42-.04.59-.12s.32-.2.43-.34.2-.32.26-.51.09-.41.09-.64Z" style="fill:#8a2922;"/><path d="m317.03,399c-.35.64-.68,1.28-1,1.91s-.6,1.26-.85,1.9-.47,1.28-.66,1.92-.33,1.31-.43,1.98h-1.42c.09-.6.23-1.2.4-1.8s.38-1.2.61-1.8.5-1.2.79-1.81.6-1.22.93-1.83h-3.98v-1.16h5.61v.68Z" style="fill:#8a2922;"/><path d="m329.04,404.38c0-.24.03-.48.09-.7s.15-.44.27-.63.27-.36.46-.52.4-.28.64-.37c-.36-.2-.65-.46-.87-.78s-.32-.67-.32-1.06c0-.31.06-.59.19-.86s.3-.49.53-.68.49-.34.79-.45.64-.16,1-.16.7.05,1,.16.57.26.8.45.4.42.52.68.19.54.19.85c0,.39-.11.74-.32,1.06s-.5.58-.86.78c.24.09.46.22.64.37s.34.32.47.51.22.4.28.63.09.46.09.71c0,.37-.07.7-.21,1.01s-.33.57-.57.78-.54.39-.88.51-.72.18-1.14.18-.79-.06-1.13-.18-.64-.29-.88-.51-.44-.48-.58-.78-.21-.64-.21-1.01Zm1.32-.12c0,.24.04.45.11.64s.17.35.3.49.28.23.47.3.38.11.61.11.41-.04.59-.11.33-.18.47-.31.23-.3.31-.49.11-.4.11-.64c0-.21-.04-.42-.11-.61s-.17-.35-.3-.5-.28-.25-.47-.33-.38-.12-.61-.12c-.21,0-.41.04-.59.11s-.34.18-.47.32-.23.3-.31.5-.11.4-.11.63Zm.29-3.8c0,.18.03.34.09.49s.15.28.25.39.23.2.37.26.3.09.46.09.32-.03.46-.1.27-.15.38-.26.19-.24.25-.39.09-.31.09-.48-.03-.34-.09-.49-.14-.28-.25-.39-.23-.2-.38-.26-.3-.09-.47-.09-.34.03-.48.1-.27.15-.37.27-.18.25-.24.4-.08.31-.08.48Z" style="fill:#8a2922;"/><circle cx="283.72" cy="354.35" r="2.37" style="fill:#e8e8e8;"/><circle cx="301.26" cy="354.35" r="2.37" style="fill:#e8e8e8;"/><circle cx="320.53" cy="354.35" r="2.37" style="fill:#e8e8e8;"/><circle cx="338.06" cy="354.35" r="2.37" style="fill:#e8e8e8;"/><path d="m280.9,388.39h-1.53l-.76-2.14h-3.3l-.73,2.14h-1.52l3.15-8.4h1.57l3.12,8.4Zm-2.65-3.28l-1.17-3.35c-.04-.11-.07-.29-.11-.53h-.02c-.04.22-.07.4-.12.53l-1.15,3.35h2.57Z" style="fill:#e8e8e8;"/><path d="m291.84,388.39v-8.4h2.67c.81,0,1.46.18,1.93.53s.71.82.71,1.39c0,.48-.13.89-.4,1.24s-.64.6-1.12.75v.02c.58.07,1.04.28,1.39.64s.52.83.52,1.41c0,.72-.28,1.3-.85,1.75s-1.28.67-2.14.67h-2.7Zm1.39-7.28v2.39h.9c.48,0,.86-.11,1.14-.34s.41-.55.41-.97c0-.72-.48-1.08-1.44-1.08h-1.01Zm0,3.51v2.66h1.19c.52,0,.92-.12,1.2-.36s.42-.57.42-.99c0-.87-.6-1.31-1.81-1.31h-1.01Z" style="fill:#e8e8e8;"/><path d="m316.98,388.04c-.63.33-1.42.49-2.36.49-1.22,0-2.2-.38-2.93-1.15s-1.1-1.78-1.1-3.03c0-1.34.41-2.43,1.24-3.26s1.87-1.24,3.13-1.24c.81,0,1.49.12,2.02.35v1.38c-.57-.34-1.19-.5-1.88-.5-.91,0-1.65.29-2.21.87s-.85,1.36-.85,2.33.26,1.66.79,2.21,1.22.82,2.08.82c.79,0,1.48-.19,2.06-.56v1.29Z" style="fill:#e8e8e8;"/><path d="m327.64,388.39v-8.4h2.43c3.1,0,4.65,1.37,4.65,4.1,0,1.3-.43,2.34-1.29,3.13s-2.01,1.18-3.46,1.18h-2.33Zm1.39-7.22v6.04h1.11c.98,0,1.74-.27,2.29-.81s.82-1.3.82-2.29c0-1.96-1.02-2.95-3.05-2.95h-1.17Z" style="fill:#e8e8e8;"/><path d="m351.8,406.72h-1.53l-.76-2.14h-3.3l-.73,2.14h-1.52l3.15-8.4h1.57l3.12,8.4Zm-2.65-3.28l-1.17-3.35c-.04-.11-.07-.29-.11-.53h-.02c-.04.22-.07.4-.12.53l-1.15,3.35h2.57Z" style="fill:#8a2922;"/><path d="m363.66,406.72v-8.4h2.67c.81,0,1.46.18,1.93.53s.71.82.71,1.39c0,.48-.13.89-.4,1.24s-.64.6-1.12.75v.02c.58.07,1.04.28,1.39.64s.52.83.52,1.41c0,.72-.28,1.3-.85,1.75s-1.28.67-2.14.67h-2.7Zm1.39-7.28v2.39h.9c.48,0,.86-.11,1.14-.34s.41-.55.41-.97c0-.72-.48-1.08-1.44-1.08h-1.01Zm0,3.51v2.66h1.19c.52,0,.92-.12,1.2-.36s.42-.57.42-.99c0-.87-.6-1.31-1.81-1.31h-1.01Z" style="fill:#8a2922;"/><path d="m384.31,406.37c-.63.33-1.42.49-2.36.49-1.22,0-2.2-.38-2.93-1.15s-1.1-1.78-1.1-3.03c0-1.34.41-2.43,1.24-3.26s1.87-1.24,3.13-1.24c.81,0,1.49.12,2.02.35v1.38c-.57-.34-1.19-.5-1.88-.5-.91,0-1.65.29-2.21.87s-.85,1.36-.85,2.33.26,1.66.79,2.21,1.22.82,2.08.82c.79,0,1.48-.19,2.06-.56v1.29Z" style="fill:#8a2922;"/><path d="m395.23,406.72v-8.4h2.43c3.1,0,4.65,1.37,4.65,4.1,0,1.3-.43,2.34-1.29,3.13s-2.01,1.18-3.46,1.18h-2.33Zm1.39-7.22v6.04h1.11c.98,0,1.74-.27,2.29-.81s.82-1.3.82-2.29c0-1.96-1.02-2.95-3.05-2.95h-1.17Z" style="fill:#8a2922;"/><circle cx="283.72" cy="383.8" r="2.37" style="fill:#e8e8e8;"/><circle cx="301.26" cy="383.8" r="2.37" style="fill:#e8e8e8;"/><circle cx="320.53" cy="383.8" r="2.37" style="fill:#e8e8e8;"/><circle cx="338.06" cy="383.8" r="2.37" style="fill:#e8e8e8;"/><g><path d="m219.16,316.43h-1.38v-5.44c0-.45.03-.99.08-1.63h-.02c-.09.37-.16.63-.23.79l-2.51,6.28h-.96l-2.51-6.23c-.07-.18-.14-.46-.22-.84h-.02c.03.34.05.88.05,1.65v5.43h-1.29v-8.4h1.96l2.21,5.6c.17.43.28.75.33.96h.03c.14-.44.26-.77.35-.98l2.25-5.57h1.89v8.4Z" style="fill:#8a2922;"/><path d="m227.69,313.03c0,2.36-1.12,3.54-3.35,3.54s-3.21-1.13-3.21-3.4v-5.14h1.39v4.85c0,1.65.64,2.47,1.92,2.47s1.85-.79,1.85-2.38v-4.94h1.39v5Z" style="fill:#8a2922;"/><path d="m234.31,316.43h-4.65v-8.4h1.39v7.22h3.26v1.18Z" style="fill:#8a2922;"/><path d="m240.92,309.21h-2.41v7.22h-1.39v-7.22h-2.41v-1.18h6.22v1.18Z" style="fill:#8a2922;"/><path d="m243.58,316.43h-1.44v-8.4h1.44v8.4Z" style="fill:#8a2922;"/><path d="m251.51,316.07c-.63.33-1.42.49-2.36.49-1.22,0-2.2-.38-2.93-1.15s-1.1-1.78-1.1-3.03c0-1.34.41-2.43,1.24-3.26s1.87-1.24,3.13-1.24c.81,0,1.49.12,2.02.35v1.38c-.57-.34-1.19-.5-1.88-.5-.91,0-1.65.29-2.21.87s-.85,1.36-.85,2.33.26,1.66.79,2.21,1.22.82,2.08.82c.79,0,1.48-.19,2.06-.56v1.29Z" style="fill:#8a2922;"/><path d="m260,316.43h-1.53l-.76-2.14h-3.3l-.73,2.14h-1.52l3.15-8.4h1.57l3.12,8.4Zm-2.65-3.28l-1.17-3.35c-.04-.11-.07-.29-.11-.53h-.02c-.04.22-.07.4-.12.53l-1.15,3.35h2.57Z" style="fill:#8a2922;"/><path d="m261.16,316.43v-8.4h2.67c.81,0,1.46.18,1.93.53s.71.82.71,1.39c0,.48-.13.89-.4,1.24s-.64.6-1.12.75v.02c.58.07,1.04.28,1.39.64s.52.83.52,1.41c0,.72-.28,1.3-.85,1.75s-1.28.67-2.14.67h-2.7Zm1.39-7.28v2.39h.9c.48,0,.86-.11,1.14-.34s.41-.55.41-.97c0-.72-.48-1.08-1.44-1.08h-1.01Zm0,3.51v2.66h1.19c.52,0,.92-.12,1.2-.36s.42-.57.42-.99c0-.87-.6-1.31-1.81-1.31h-1.01Z" style="fill:#8a2922;"/><path d="m273.06,316.43h-4.65v-8.4h1.39v7.22h3.26v1.18Z" style="fill:#8a2922;"/><path d="m278.99,316.43h-4.72v-8.4h4.53v1.18h-3.13v2.38h2.89v1.18h-2.89v2.48h3.32v1.18Z" style="fill:#8a2922;"/></g></g><g><rect x="237.36" y="235.12" width="71.21" height="36.79" style="fill:#8a2922;"/><g><path d="m243.91,235.12v-8.4h2.43c3.1,0,4.65,1.37,4.65,4.1,0,1.3-.43,2.34-1.29,3.13s-2.01,1.18-3.46,1.18h-2.33Zm1.39-7.22v6.04h1.11c.98,0,1.74-.27,2.29-.81s.82-1.3.82-2.29c0-1.96-1.02-2.95-3.05-2.95h-1.17Z" style="fill:#8a2922;"/><path d="m255.28,232.1c0,1-.25,1.77-.74,2.32s-1.15.83-1.97.83c-.38,0-.7-.04-.94-.13v-1.31c.22.15.51.23.86.23.93,0,1.39-.72,1.39-2.16v-5.17h1.39v5.39Z" style="fill:#8a2922;"/><path d="m260.19,234.78v-1.44c.13.12.28.22.46.32s.37.17.57.24.4.11.6.15.38.05.55.05c.59,0,1.02-.1,1.31-.29s.43-.48.43-.85c0-.2-.05-.37-.14-.52s-.23-.28-.4-.4-.37-.24-.61-.35-.48-.23-.75-.35c-.29-.15-.55-.31-.8-.46s-.46-.33-.64-.52-.32-.4-.43-.64-.16-.52-.16-.84c0-.39.09-.74.27-1.03s.41-.53.7-.72.62-.33.99-.42.75-.14,1.14-.14c.88,0,1.52.1,1.92.3v1.38c-.48-.34-1.09-.52-1.84-.52-.21,0-.41.02-.62.06s-.39.1-.55.19-.29.21-.4.35-.15.31-.15.51c0,.19.04.35.12.49s.19.26.34.38.33.22.55.33.47.22.75.35c.29.15.57.31.83.48s.49.35.69.56.35.43.47.68.17.53.17.85c0,.43-.09.79-.26,1.08s-.4.53-.69.71-.63.32-1,.4-.78.12-1.2.12c-.14,0-.31-.01-.52-.03s-.42-.05-.63-.09-.42-.09-.61-.15-.35-.12-.46-.2Z" style="fill:#8a2922;"/><path d="m272.96,226.71l-2.75,5.35v3.05h-1.39v-3.02l-2.68-5.38h1.59l1.65,3.6s.08.21.18.49h.02c.04-.12.1-.29.19-.49l1.73-3.6h1.48Z" style="fill:#8a2922;"/><path d="m273.65,234.78v-1.44c.13.12.28.22.46.32s.37.17.57.24.4.11.6.15.38.05.55.05c.59,0,1.02-.1,1.31-.29s.43-.48.43-.85c0-.2-.05-.37-.14-.52s-.23-.28-.4-.4-.37-.24-.61-.35-.48-.23-.75-.35c-.29-.15-.55-.31-.8-.46s-.46-.33-.64-.52-.32-.4-.43-.64-.16-.52-.16-.84c0-.39.09-.74.27-1.03s.41-.53.7-.72.62-.33.99-.42.75-.14,1.14-.14c.88,0,1.52.1,1.92.3v1.38c-.48-.34-1.09-.52-1.84-.52-.21,0-.41.02-.62.06s-.39.1-.55.19-.29.21-.4.35-.15.31-.15.51c0,.19.04.35.12.49s.19.26.34.38.33.22.55.33.47.22.75.35c.29.15.57.31.83.48s.49.35.69.56.35.43.47.68.17.53.17.85c0,.43-.09.79-.26,1.08s-.4.53-.69.71-.63.32-1,.4-.78.12-1.2.12c-.14,0-.31-.01-.52-.03s-.42-.05-.63-.09-.42-.09-.61-.15-.35-.12-.46-.2Z" style="fill:#8a2922;"/><path d="m285.96,227.9h-2.41v7.22h-1.39v-7.22h-2.41v-1.18h6.22v1.18Z" style="fill:#8a2922;"/><path d="m291.9,235.12h-4.72v-8.4h4.53v1.18h-3.13v2.38h2.89v1.18h-2.89v2.48h3.32v1.18Z" style="fill:#8a2922;"/><path d="m302.42,235.12h-1.38v-5.44c0-.45.03-.99.08-1.63h-.02c-.09.37-.16.63-.23.79l-2.51,6.28h-.96l-2.51-6.23c-.07-.18-.14-.46-.22-.84h-.02c.03.34.05.88.05,1.65v5.43h-1.29v-8.4h1.96l2.21,5.6c.17.43.28.75.33.96h.03c.14-.44.26-.77.35-.98l2.25-5.57h1.89v8.4Z" style="fill:#8a2922;"/></g><g><path d="m284.84,262.54c-1.21,0-2.18-.39-2.91-1.18s-1.09-1.81-1.09-3.06c0-1.35.37-2.43,1.11-3.23s1.75-1.21,3.02-1.21c1.18,0,2.13.39,2.85,1.17s1.08,1.8,1.08,3.06c0,1.37-.37,2.46-1.11,3.25s-1.72,1.2-2.96,1.2Zm.06-7.46c-.77,0-1.4.29-1.88.86s-.72,1.33-.72,2.27.23,1.69.7,2.26,1.08.86,1.84.86c.8,0,1.44-.27,1.9-.81s.7-1.3.7-2.28-.23-1.78-.68-2.33-1.07-.82-1.87-.82Z" style="fill:#e8e8e8;"/><path d="m296.91,259.01c0,2.36-1.12,3.54-3.35,3.54s-3.21-1.13-3.21-3.4v-5.14h1.39v4.85c0,1.65.64,2.47,1.92,2.47s1.85-.79,1.85-2.38v-4.94h1.39v5Z" style="fill:#e8e8e8;"/><path d="m304.28,255.18h-2.41v7.22h-1.39v-7.22h-2.41v-1.18h6.22v1.18Z" style="fill:#e8e8e8;"/></g><circle cx="283.58" cy="266.63" r="2.37" style="fill:#e8e8e8;"/><circle cx="301.12" cy="266.63" r="2.37" style="fill:#e8e8e8;"/></g><g><rect x="313.54" y="235.12" width="71.21" height="36.79" style="fill:#8a2922;"/><g><path d="m315.7,235.12v-8.4h2.43c3.1,0,4.65,1.37,4.65,4.1,0,1.3-.43,2.34-1.29,3.13s-2.01,1.18-3.46,1.18h-2.33Zm1.39-7.22v6.04h1.11c.98,0,1.74-.27,2.29-.81s.82-1.3.82-2.29c0-1.96-1.02-2.95-3.05-2.95h-1.17Z" style="fill:#8a2922;"/><path d="m327.07,232.1c0,1-.25,1.77-.74,2.32s-1.15.83-1.97.83c-.38,0-.7-.04-.94-.13v-1.31c.22.15.51.23.86.23.93,0,1.39-.72,1.39-2.16v-5.17h1.39v5.39Z" style="fill:#8a2922;"/><path d="m336.51,234.84c-.48.28-1.05.42-1.71.42-.89,0-1.61-.28-2.16-.83s-.82-1.28-.82-2.17c0-.99.29-1.78.88-2.38s1.37-.9,2.36-.9c.55,0,1.03.1,1.45.29v1.27c-.42-.31-.86-.47-1.34-.47-.57,0-1.04.19-1.41.58s-.55.9-.55,1.53.17,1.11.52,1.47.81.54,1.39.54c.49,0,.95-.17,1.38-.52v1.18Z" style="fill:#8a2922;"/><path d="m340.51,235.26c-.93,0-1.67-.28-2.22-.84s-.83-1.3-.83-2.23c0-1.01.29-1.79.86-2.36s1.35-.85,2.33-.85,1.67.28,2.19.83.79,1.31.79,2.29-.28,1.72-.85,2.3-1.32.86-2.28.86Zm.06-5.2c-.53,0-.95.19-1.26.56s-.46.88-.46,1.54.16,1.12.47,1.49.73.54,1.25.54.95-.18,1.23-.53.43-.86.43-1.52-.14-1.17-.43-1.53-.7-.54-1.23-.54Z" style="fill:#8a2922;"/><path d="m350.36,235.12h-1.36v-3.38c0-1.12-.4-1.68-1.19-1.68-.41,0-.76.16-1.03.47s-.4.7-.4,1.17v3.42h-1.37v-6h1.37v1h.02c.45-.76,1.1-1.14,1.95-1.14.65,0,1.15.21,1.49.64s.52,1.04.52,1.84v3.67Z" style="fill:#8a2922;"/><path d="m355.19,235.05c-.27.13-.62.2-1.05.2-1.16,0-1.75-.56-1.75-1.68v-3.39h-1v-1.07h1v-1.39l1.36-.39v1.78h1.44v1.07h-1.44v3c0,.36.06.61.19.76s.34.23.64.23c.23,0,.43-.07.6-.2v1.08Z" style="fill:#8a2922;"/><path d="m359.84,230.41c-.16-.13-.4-.19-.71-.19-.4,0-.74.18-1.01.54s-.4.86-.4,1.48v2.87h-1.36v-6h1.36v1.24h.02c.13-.42.34-.75.61-.99s.58-.35.92-.35c.25,0,.43.04.56.11v1.29Z" style="fill:#8a2922;"/><path d="m363.46,235.26c-.93,0-1.67-.28-2.22-.84s-.83-1.3-.83-2.23c0-1.01.29-1.79.86-2.36s1.35-.85,2.33-.85,1.67.28,2.19.83.79,1.31.79,2.29-.28,1.72-.85,2.3-1.32.86-2.28.86Zm.06-5.2c-.53,0-.95.19-1.26.56s-.46.88-.46,1.54.16,1.12.47,1.49.73.54,1.25.54.95-.18,1.23-.53.43-.86.43-1.52-.14-1.17-.43-1.53-.7-.54-1.23-.54Z" style="fill:#8a2922;"/><path d="m369.33,235.12h-1.37v-8.88h1.37v8.88Z" style="fill:#8a2922;"/><path d="m372.46,235.12h-1.37v-8.88h1.37v8.88Z" style="fill:#8a2922;"/><path d="m379.31,232.48h-4.09c.02.55.19.98.51,1.28s.77.45,1.34.45c.64,0,1.23-.19,1.76-.57v1.1c-.55.34-1.27.52-2.17.52s-1.58-.27-2.08-.82-.75-1.31-.75-2.3c0-.93.28-1.69.83-2.28s1.24-.88,2.06-.88,1.46.26,1.9.79.67,1.26.67,2.2v.52Zm-1.31-.96c0-.49-.12-.87-.35-1.14s-.54-.41-.94-.41-.72.14-.99.43-.44.66-.5,1.12h2.78Z" style="fill:#8a2922;"/><path d="m384.09,230.41c-.16-.13-.4-.19-.71-.19-.4,0-.74.18-1.01.54s-.4.86-.4,1.48v2.87h-1.36v-6h1.36v1.24h.02c.13-.42.34-.75.61-.99s.58-.35.92-.35c.25,0,.43.04.56.11v1.29Z" style="fill:#8a2922;"/></g><g><path d="m352.32,279.05h-.77c-.82-.92-1.23-2.06-1.23-3.41s.41-2.51,1.23-3.46h.77c-.81.99-1.21,2.14-1.21,3.46s.4,2.44,1.21,3.42Z" style="fill:#8a2922;"/><path d="m354.76,277.87c-.62,0-1.11-.19-1.48-.56-.37-.37-.55-.87-.55-1.49,0-.67.19-1.2.58-1.57.38-.38.9-.57,1.55-.57s1.11.18,1.46.55c.35.37.52.88.52,1.53s-.19,1.15-.56,1.53c-.38.38-.88.58-1.52.58Zm.04-3.46c-.35,0-.63.12-.84.37-.21.25-.31.59-.31,1.02s.1.75.31.99c.21.24.49.36.84.36s.63-.12.82-.36c.19-.24.29-.57.29-1.01s-.1-.78-.29-1.02c-.19-.24-.46-.36-.82-.36Z" style="fill:#8a2922;"/><path d="m358.69,277.18h-.02v2.43h-.91v-5.84h.91v.7h.02c.31-.53.76-.8,1.36-.8.51,0,.9.18,1.19.53.28.36.43.84.43,1.44,0,.67-.16,1.2-.48,1.6-.32.4-.76.6-1.31.6-.51,0-.9-.22-1.18-.67Zm-.02-1.58v.5c0,.29.09.54.28.74.19.2.42.3.71.3.34,0,.6-.13.79-.39s.29-.63.29-1.1c0-.39-.09-.7-.27-.92-.18-.22-.42-.33-.72-.33-.32,0-.58.12-.78.34-.2.23-.29.52-.29.86Z" style="fill:#8a2922;"/><path d="m364.69,277.73c-.18.09-.41.13-.7.13-.78,0-1.16-.37-1.16-1.12v-2.26h-.67v-.71h.67v-.93l.91-.26v1.18h.96v.71h-.96v2c0,.24.04.41.13.51s.23.15.43.15c.15,0,.29-.04.4-.13v.72Z" style="fill:#8a2922;"/><path d="m365.93,272.93c-.15,0-.28-.05-.38-.14s-.16-.22-.16-.37.05-.27.16-.37.23-.15.38-.15.28.05.39.15c.11.1.16.22.16.37,0,.14-.05.26-.16.36-.11.1-.24.15-.39.15Zm.45,4.84h-.91v-4h.91v4Z" style="fill:#8a2922;"/><path d="m369.34,277.87c-.62,0-1.11-.19-1.48-.56-.37-.37-.55-.87-.55-1.49,0-.67.19-1.2.58-1.57.38-.38.9-.57,1.55-.57s1.11.18,1.46.55c.35.37.52.88.52,1.53s-.19,1.15-.56,1.53c-.38.38-.88.58-1.52.58Zm.04-3.46c-.35,0-.63.12-.84.37-.21.25-.31.59-.31,1.02s.1.75.31.99c.21.24.49.36.84.36s.63-.12.82-.36c.19-.24.29-.57.29-1.01s-.1-.78-.29-1.02c-.19-.24-.46-.36-.82-.36Z" style="fill:#8a2922;"/><path d="m375.91,277.77h-.91v-2.25c0-.75-.26-1.12-.79-1.12-.28,0-.5.1-.68.31s-.27.47-.27.78v2.28h-.91v-4h.91v.66h.02c.3-.5.73-.76,1.3-.76.44,0,.77.14,1,.42.23.28.34.69.34,1.22v2.45Z" style="fill:#8a2922;"/><path d="m380.08,277.77h-.88v-.62h-.02c-.28.48-.68.72-1.21.72-.39,0-.7-.11-.92-.32-.22-.21-.33-.5-.33-.85,0-.75.44-1.2,1.3-1.32l1.19-.17c0-.57-.27-.86-.81-.86-.48,0-.91.16-1.29.49v-.79c.42-.25.91-.38,1.46-.38,1.01,0,1.52.5,1.52,1.49v2.6Zm-.88-1.96l-.84.12c-.26.03-.46.1-.59.19-.13.09-.2.25-.2.49,0,.17.06.31.18.42.12.11.28.16.49.16.28,0,.5-.1.69-.29.18-.19.27-.44.27-.73v-.35Z" style="fill:#8a2922;"/><path d="m382.1,277.77h-.91v-5.92h.91v5.92Z" style="fill:#8a2922;"/><path d="m383.53,279.05h-.77c.81-.97,1.21-2.11,1.21-3.42s-.4-2.47-1.21-3.46h.77c.83.95,1.24,2.11,1.24,3.46s-.41,2.49-1.24,3.41Z" style="fill:#8a2922;"/></g><g><path d="m321.71,262.54c-1.21,0-2.18-.39-2.91-1.18s-1.09-1.81-1.09-3.06c0-1.35.37-2.43,1.11-3.23s1.75-1.21,3.02-1.21c1.18,0,2.13.39,2.85,1.17s1.08,1.8,1.08,3.06c0,1.37-.37,2.46-1.11,3.25s-1.72,1.2-2.96,1.2Zm.06-7.46c-.77,0-1.4.29-1.88.86s-.72,1.33-.72,2.27.23,1.69.7,2.26,1.08.86,1.84.86c.8,0,1.44-.27,1.9-.81s.7-1.3.7-2.28-.23-1.78-.68-2.33-1.07-.82-1.87-.82Z" style="fill:#e8e8e8;"/><path d="m333.78,259.01c0,2.36-1.12,3.54-3.35,3.54s-3.21-1.13-3.21-3.4v-5.14h1.39v4.85c0,1.65.64,2.47,1.92,2.47s1.85-.79,1.85-2.38v-4.94h1.39v5Z" style="fill:#e8e8e8;"/><path d="m341.15,255.18h-2.41v7.22h-1.39v-7.22h-2.41v-1.18h6.22v1.18Z" style="fill:#e8e8e8;"/></g><circle cx="320.46" cy="266.63" r="2.37" style="fill:#e8e8e8;"/><circle cx="337.99" cy="266.63" r="2.37" style="fill:#e8e8e8;"/></g><g><g><rect x="269.35" y="67.52" width="75.18" height="90.14" style="fill:#8a2922;"/><g><path d="m298.72,67.18v-1.44c.13.12.28.22.46.32s.37.17.57.24.4.11.6.15.38.05.55.05c.59,0,1.02-.1,1.31-.29s.43-.48.43-.85c0-.2-.05-.37-.14-.52s-.23-.28-.4-.4-.37-.24-.61-.35-.48-.23-.75-.35c-.29-.15-.55-.31-.8-.46s-.46-.33-.64-.52-.32-.4-.43-.64-.16-.52-.16-.84c0-.39.09-.74.27-1.03s.41-.53.7-.72.62-.33.99-.42.75-.14,1.14-.14c.88,0,1.52.1,1.92.3v1.38c-.48-.34-1.09-.52-1.84-.52-.21,0-.41.02-.62.06s-.39.1-.55.19-.29.21-.4.35-.15.31-.15.51c0,.19.04.35.12.49s.19.26.34.38.33.22.55.33.47.22.75.35c.29.15.57.31.83.48s.49.35.69.56.35.43.47.68.17.53.17.85c0,.43-.09.79-.26,1.08s-.4.53-.69.71-.63.32-1,.4-.78.12-1.2.12c-.14,0-.31-.01-.52-.03s-.42-.05-.63-.09-.42-.09-.61-.15-.35-.12-.46-.2Z" style="fill:#8a2922;"/><path d="m316.06,59.12l-2.3,8.4h-1.58l-1.6-5.88c-.07-.25-.11-.52-.12-.82h-.02c-.02.28-.07.55-.14.81l-1.61,5.89h-1.61l-2.35-8.4h1.53l1.52,6.15c.06.26.1.53.12.81h.03c.02-.2.07-.47.16-.81l1.72-6.15h1.44l1.59,6.2c.05.21.1.46.12.75h.02c.01-.2.06-.45.13-.77l1.49-6.18h1.44Z" style="fill:#8a2922;"/></g><g><path d="m275.34,167.21h-1.53l-.76-2.14h-3.3l-.73,2.14h-1.52l3.15-8.4h1.57l3.12,8.4Zm-2.65-3.28l-1.17-3.35c-.04-.11-.07-.29-.11-.53h-.02c-.04.22-.07.4-.12.53l-1.15,3.35h2.57Z" style="fill:#8a2922;"/><path d="m281.14,167.21h-4.65v-8.4h1.39v7.22h3.26v1.18Z" style="fill:#8a2922;"/><path d="m287.75,159.99h-2.41v7.22h-1.39v-7.22h-2.41v-1.18h6.22v1.18Z" style="fill:#8a2922;"/><path d="m292.44,167.35c-1.21,0-2.18-.39-2.91-1.18s-1.09-1.81-1.09-3.06c0-1.35.37-2.43,1.11-3.23s1.75-1.21,3.02-1.21c1.18,0,2.13.39,2.85,1.17s1.08,1.8,1.08,3.06c0,1.37-.37,2.46-1.11,3.25s-1.72,1.2-2.96,1.2Zm.06-7.46c-.77,0-1.4.29-1.88.86s-.72,1.33-.72,2.27.23,1.69.7,2.26,1.08.86,1.84.86c.8,0,1.44-.27,1.9-.81s.7-1.3.7-2.28-.23-1.78-.68-2.33-1.07-.82-1.87-.82Z" style="fill:#8a2922;"/><path d="m306.74,159.99h-2.41v7.22h-1.39v-7.22h-2.41v-1.18h6.22v1.18Z" style="fill:#8a2922;"/><path d="m307.58,166.88v-1.44c.13.12.28.22.46.32s.37.17.57.24.4.11.6.15.38.05.55.05c.59,0,1.02-.1,1.31-.29s.43-.48.43-.85c0-.2-.05-.37-.14-.52s-.23-.28-.4-.4-.37-.24-.61-.35-.48-.23-.75-.35c-.29-.15-.55-.31-.8-.46s-.46-.33-.64-.52-.32-.4-.43-.64-.16-.52-.16-.84c0-.39.09-.74.27-1.03s.41-.53.7-.72.62-.33.99-.42.75-.14,1.14-.14c.88,0,1.52.1,1.92.3v1.38c-.48-.34-1.09-.52-1.84-.52-.21,0-.41.02-.62.06s-.39.1-.55.19-.29.21-.4.35-.15.31-.15.51c0,.19.04.35.12.49s.19.26.34.38.33.22.55.33.47.22.75.35c.29.15.57.31.83.48s.49.35.69.56.35.43.47.68.17.53.17.85c0,.43-.09.79-.26,1.08s-.4.53-.69.71-.63.32-1,.4-.78.12-1.2.12c-.14,0-.31-.01-.52-.03s-.42-.05-.63-.09-.42-.09-.61-.15-.35-.12-.46-.2Z" style="fill:#8a2922;"/><path d="m314.11,166.88v-1.44c.13.12.28.22.46.32s.37.17.57.24.4.11.6.15.38.05.55.05c.59,0,1.02-.1,1.31-.29s.43-.48.43-.85c0-.2-.05-.37-.14-.52s-.23-.28-.4-.4-.37-.24-.61-.35-.48-.23-.75-.35c-.29-.15-.55-.31-.8-.46s-.46-.33-.64-.52-.32-.4-.43-.64-.16-.52-.16-.84c0-.39.09-.74.27-1.03s.41-.53.7-.72.62-.33.99-.42.75-.14,1.14-.14c.88,0,1.52.1,1.92.3v1.38c-.48-.34-1.09-.52-1.84-.52-.21,0-.41.02-.62.06s-.39.1-.55.19-.29.21-.4.35-.15.31-.15.51c0,.19.04.35.12.49s.19.26.34.38.33.22.55.33.47.22.75.35c.29.15.57.31.83.48s.49.35.69.56.35.43.47.68.17.53.17.85c0,.43-.09.79-.26,1.08s-.4.53-.69.71-.63.32-1,.4-.78.12-1.2.12c-.14,0-.31-.01-.52-.03s-.42-.05-.63-.09-.42-.09-.61-.15-.35-.12-.46-.2Z" style="fill:#8a2922;"/><path d="m327.5,163.81c0,2.36-1.12,3.54-3.35,3.54s-3.21-1.13-3.21-3.4v-5.14h1.39v4.85c0,1.65.64,2.47,1.92,2.47s1.85-.79,1.85-2.38v-4.94h1.39v5Z" style="fill:#8a2922;"/><path d="m329.47,167.21v-8.4h2.67c.81,0,1.46.18,1.93.53s.71.82.71,1.39c0,.48-.13.89-.4,1.24s-.64.6-1.12.75v.02c.58.07,1.04.28,1.39.64s.52.83.52,1.41c0,.72-.28,1.3-.85,1.75s-1.28.67-2.14.67h-2.7Zm1.39-7.28v2.39h.9c.48,0,.86-.11,1.14-.34s.41-.55.41-.97c0-.72-.48-1.08-1.44-1.08h-1.01Zm0,3.51v2.66h1.19c.52,0,.92-.12,1.2-.36s.42-.57.42-.99c0-.87-.6-1.31-1.81-1.31h-1.01Z" style="fill:#8a2922;"/><path d="m339.29,158.62v8.59h-1.36v-6.93c-.25.18-.51.33-.79.45s-.61.23-.97.33v-1.16c.23-.07.45-.15.66-.23s.42-.17.62-.28.41-.21.62-.34.42-.27.65-.43h.57Z" style="fill:#8a2922;"/><path d="m341.04,164.87c0-.24.03-.48.09-.7s.15-.44.27-.63.27-.36.46-.52.4-.28.64-.37c-.36-.2-.65-.46-.87-.78s-.32-.67-.32-1.06c0-.31.06-.59.19-.86s.3-.49.53-.68.49-.34.79-.45.64-.16,1-.16.7.05,1,.16.57.26.8.45.4.42.52.68.19.54.19.85c0,.39-.11.74-.32,1.06s-.5.58-.86.78c.24.09.46.22.64.37s.34.32.47.51.22.4.28.63.09.46.09.71c0,.37-.07.7-.21,1.01s-.33.57-.57.78-.54.39-.88.51-.72.18-1.14.18-.79-.06-1.13-.18-.64-.29-.88-.51-.44-.48-.58-.78-.21-.64-.21-1.01Zm1.32-.12c0,.24.04.45.11.64s.17.35.3.49.28.23.47.3.38.11.61.11.41-.04.59-.11.33-.18.47-.31.23-.3.31-.49.11-.4.11-.64c0-.21-.04-.42-.11-.61s-.17-.35-.3-.5-.28-.25-.47-.33-.38-.12-.61-.12c-.21,0-.41.04-.59.11s-.34.18-.47.32-.23.3-.31.5-.11.4-.11.63Zm.29-3.8c0,.18.03.34.09.49s.15.28.25.39.23.2.37.26.3.09.46.09.32-.03.46-.1.27-.15.38-.26.19-.24.25-.39.09-.31.09-.48-.03-.34-.09-.49-.14-.28-.25-.39-.23-.2-.38-.26-.3-.09-.47-.09-.34.03-.48.1-.27.15-.37.27-.18.25-.24.4-.08.31-.08.48Z" style="fill:#8a2922;"/></g><g><path d="m303.65,81.4h-1.44v-8.4h1.44v8.4Z" style="fill:#e8e8e8;"/><path d="m312.84,81.4h-1.52l-4.01-6.18c-.1-.16-.19-.32-.25-.49h-.04c.03.18.05.56.05,1.15v5.51h-1.35v-8.4h1.62l3.88,6.03c.16.25.27.42.32.52h.02c-.04-.22-.06-.6-.06-1.13v-5.41h1.34v8.4Z" style="fill:#e8e8e8;"/></g><g><path d="m299.43,110.88c-1.21,0-2.18-.39-2.91-1.18s-1.09-1.81-1.09-3.06c0-1.35.37-2.43,1.11-3.23s1.75-1.21,3.02-1.21c1.18,0,2.13.39,2.85,1.17s1.08,1.8,1.08,3.06c0,1.37-.37,2.46-1.11,3.25s-1.72,1.2-2.96,1.2Zm.06-7.46c-.77,0-1.4.29-1.88.86s-.72,1.33-.72,2.27.23,1.69.7,2.26,1.08.86,1.84.86c.8,0,1.44-.27,1.9-.81s.7-1.3.7-2.28-.23-1.78-.68-2.33-1.07-.82-1.87-.82Z" style="fill:#e8e8e8;"/><path d="m311.5,107.34c0,2.36-1.12,3.54-3.35,3.54s-3.21-1.13-3.21-3.4v-5.14h1.39v4.85c0,1.65.64,2.47,1.92,2.47s1.85-.79,1.85-2.38v-4.94h1.39v5Z" style="fill:#e8e8e8;"/><path d="m318.87,103.52h-2.41v7.22h-1.39v-7.22h-2.41v-1.18h6.22v1.18Z" style="fill:#e8e8e8;"/></g><g><path d="m283.85,138.03h-4.65v-8.4h1.39v7.22h3.26v1.18Z" style="fill:#e8e8e8;"/><path d="m286.5,138.03h-1.44v-8.4h1.44v8.4Z" style="fill:#e8e8e8;"/><path d="m295.69,138.03h-1.52l-4.01-6.18c-.1-.16-.19-.32-.25-.49h-.04c.03.18.05.56.05,1.15v5.51h-1.35v-8.4h1.62l3.88,6.03c.16.25.27.42.32.52h.02c-.04-.22-.06-.6-.06-1.13v-5.41h1.34v8.4Z" style="fill:#e8e8e8;"/><path d="m304.13,138.03h-1.82l-2.92-3.84c-.11-.14-.18-.24-.2-.29h-.02v4.14h-1.39v-8.4h1.39v3.95h.02c.05-.09.11-.18.2-.29l2.82-3.66h1.67l-3.3,4.03,3.55,4.37Z" style="fill:#e8e8e8;"/><path d="m307.93,139.95h-1.15c-1.23-1.38-1.85-3.09-1.85-5.12s.62-3.77,1.85-5.2h1.15c-1.21,1.48-1.82,3.21-1.82,5.19s.6,3.67,1.81,5.13Z" style="fill:#e8e8e8;"/><path d="m314.39,138.03h-1.36v-1.02h-.02c-.44.77-1.11,1.16-2.02,1.16-.74,0-1.33-.27-1.77-.81s-.67-1.27-.67-2.19c0-.99.25-1.79.74-2.38s1.14-.9,1.96-.9,1.4.32,1.76.97h.02v-3.71h1.36v8.88Zm-1.34-2.74v-.79c0-.43-.14-.79-.42-1.08s-.63-.45-1.06-.45c-.51,0-.91.19-1.2.57s-.44.9-.44,1.58c0,.61.14,1.09.42,1.44s.66.53,1.13.53.84-.17,1.13-.51.43-.77.43-1.29Z" style="fill:#e8e8e8;"/><path d="m321.24,135.4h-4.09c.02.55.19.98.51,1.28s.77.45,1.34.45c.64,0,1.23-.19,1.76-.57v1.1c-.55.34-1.27.52-2.17.52s-1.58-.27-2.08-.82-.75-1.31-.75-2.3c0-.93.28-1.69.83-2.28s1.24-.88,2.06-.88,1.46.26,1.9.79.67,1.26.67,2.2v.52Zm-1.31-.96c0-.49-.12-.87-.35-1.14s-.54-.41-.94-.41-.72.14-.99.43-.44.66-.5,1.12h2.78Z" style="fill:#e8e8e8;"/><path d="m327.14,138.03h-1.32v-.94h-.02c-.41.72-1.02,1.08-1.82,1.08-.59,0-1.05-.16-1.39-.48s-.5-.74-.5-1.27c0-1.13.65-1.79,1.96-1.98l1.78-.25c0-.86-.41-1.28-1.22-1.28-.71,0-1.36.25-1.93.74v-1.19c.63-.38,1.36-.56,2.19-.56,1.52,0,2.27.75,2.27,2.24v3.9Zm-1.31-2.95l-1.26.18c-.39.05-.68.15-.88.28s-.3.38-.3.73c0,.25.09.46.27.62s.42.24.73.24c.41,0,.76-.15,1.03-.44s.41-.66.41-1.1v-.52Z" style="fill:#e8e8e8;"/><path d="m334.26,138.03h-1.36v-1.02h-.02c-.44.77-1.11,1.16-2.02,1.16-.74,0-1.33-.27-1.77-.81s-.67-1.27-.67-2.19c0-.99.25-1.79.74-2.38s1.14-.9,1.96-.9,1.4.32,1.76.97h.02v-3.71h1.36v8.88Zm-1.34-2.74v-.79c0-.43-.14-.79-.42-1.08s-.63-.45-1.06-.45c-.51,0-.91.19-1.2.57s-.44.9-.44,1.58c0,.61.14,1.09.42,1.44s.66.53,1.13.53.84-.17,1.13-.51.43-.77.43-1.29Z" style="fill:#e8e8e8;"/><path d="m336.42,139.95h-1.15c1.21-1.46,1.82-3.17,1.82-5.13s-.61-3.7-1.82-5.19h1.16c1.24,1.43,1.86,3.16,1.86,5.2s-.62,3.73-1.86,5.12Z" style="fill:#e8e8e8;"/></g><circle cx="298.18" cy="85" r="2.37" style="fill:#e8e8e8;"/><circle cx="315.71" cy="85" r="2.37" style="fill:#e8e8e8;"/><circle cx="298.18" cy="114.96" r="2.37" style="fill:#e8e8e8;"/><circle cx="315.71" cy="114.96" r="2.37" style="fill:#e8e8e8;"/><circle cx="298.18" cy="144.47" r="2.37" style="fill:#e8e8e8;"/><circle cx="315.71" cy="144.47" r="2.37" style="fill:#e8e8e8;"/></g><g><rect x="139.33" y="95.46" width="54.56" height="62.77" style="fill:#8a2922;"/><g><path d="m163.37,86.88v8.59h-1.36v-6.93c-.25.18-.51.33-.79.45s-.61.23-.97.33v-1.16c.23-.07.45-.15.66-.23s.42-.17.62-.28.41-.21.62-.34.42-.27.65-.43h.57Z" style="fill:#8a2922;"/><path d="m165.5,95.27v-1.31c.55.37,1.11.56,1.68.56s1.03-.15,1.38-.44.52-.68.52-1.16-.18-.85-.53-1.11-.86-.4-1.52-.4c-.23,0-.69.02-1.38.07l.3-4.42h4.14v1.16h-3.01l-.14,2.1c.27-.02.51-.02.73-.02.89,0,1.58.23,2.07.69s.73,1.08.73,1.88c0,.83-.28,1.5-.83,2s-1.32.75-2.29.75c-.82,0-1.43-.12-1.83-.35Z" style="fill:#8a2922;"/></g><g><path d="m154.85,167.21h-1.38v-5.44c0-.45.03-.99.08-1.63h-.02c-.09.37-.16.63-.23.79l-2.51,6.28h-.96l-2.51-6.23c-.07-.18-.14-.46-.22-.84h-.02c.03.34.05.88.05,1.65v5.43h-1.29v-8.4h1.96l2.21,5.6c.17.43.28.75.33.96h.03c.14-.44.26-.77.35-.98l2.25-5.57h1.89v8.4Z" style="fill:#8a2922;"/><path d="m163.82,167.21h-1.53l-.76-2.14h-3.3l-.73,2.14h-1.52l3.15-8.4h1.57l3.12,8.4Zm-2.65-3.28l-1.17-3.35c-.04-.11-.07-.29-.11-.53h-.02c-.04.22-.07.4-.12.53l-1.15,3.35h2.57Z" style="fill:#8a2922;"/><path d="m170.84,166.86c-.63.33-1.42.49-2.36.49-1.22,0-2.2-.38-2.93-1.15s-1.1-1.78-1.1-3.03c0-1.34.41-2.43,1.24-3.26s1.87-1.24,3.13-1.24c.81,0,1.49.12,2.02.35v1.38c-.57-.34-1.19-.5-1.88-.5-.91,0-1.65.29-2.21.87s-.85,1.36-.85,2.33.26,1.66.79,2.21,1.22.82,2.08.82c.79,0,1.48-.19,2.06-.56v1.29Z" style="fill:#8a2922;"/><path d="m178.79,167.21h-1.82l-2.92-3.84c-.11-.14-.18-.24-.2-.29h-.02v4.14h-1.39v-8.4h1.39v3.95h.02c.05-.09.11-.18.2-.29l2.82-3.66h1.67l-3.3,4.03,3.55,4.37Z" style="fill:#8a2922;"/><path d="m181.19,167.21h-1.44v-8.4h1.44v8.4Z" style="fill:#8a2922;"/><path d="m187.98,167.21h-4.72v-8.4h4.53v1.18h-3.13v2.38h2.89v1.18h-2.89v2.48h3.32v1.18Z" style="fill:#8a2922;"/><path d="m148.06,170.99h-2.41v7.22h-1.39v-7.22h-2.41v-1.18h6.22v1.18Z" style="fill:#8a2922;"/><path d="m154.47,178.21h-1.36v-3.28c0-1.19-.4-1.78-1.19-1.78-.4,0-.73.17-1.01.52s-.41.78-.41,1.32v3.23h-1.37v-8.88h1.37v3.88h.02c.45-.76,1.1-1.14,1.95-1.14,1.33,0,2,.81,2,2.44v3.7Z" style="fill:#8a2922;"/><path d="m161.36,178.21h-1.36v-.95h-.02c-.39.73-1.01,1.09-1.84,1.09-1.42,0-2.13-.85-2.13-2.55v-3.59h1.36v3.45c0,1.08.42,1.62,1.25,1.62.4,0,.73-.15.99-.45s.39-.69.39-1.17v-3.45h1.36v6Z" style="fill:#8a2922;"/><path d="m172.1,178.21h-1.36v-3.27c0-.63-.09-1.08-.27-1.37s-.48-.42-.9-.42c-.36,0-.66.18-.91.53s-.37.78-.37,1.28v3.25h-1.37v-3.38c0-1.12-.39-1.68-1.18-1.68-.37,0-.67.17-.91.5s-.35.77-.35,1.31v3.25h-1.36v-6h1.36v.95h.02c.43-.73,1.06-1.09,1.89-1.09.41,0,.78.11,1.09.34s.52.53.64.9c.45-.83,1.11-1.24,1.99-1.24,1.32,0,1.98.81,1.98,2.44v3.7Z" style="fill:#8a2922;"/><path d="m175.14,177.32h-.02v3.64h-1.36v-8.76h1.36v1.05h.02c.46-.8,1.14-1.2,2.04-1.2.76,0,1.36.27,1.78.8s.64,1.25.64,2.16c0,1-.24,1.8-.72,2.4s-1.14.9-1.97.9c-.77,0-1.36-.34-1.77-1.01Zm-.04-2.37v.74c0,.44.14.81.42,1.11s.63.46,1.06.46c.5,0,.9-.2,1.19-.59s.43-.94.43-1.64c0-.59-.13-1.05-.4-1.39s-.63-.5-1.09-.5c-.48,0-.87.17-1.17.52s-.44.77-.44,1.29Z" style="fill:#8a2922;"/><path d="m183.7,169.62v8.59h-1.36v-6.93c-.25.18-.51.33-.79.45s-.61.23-.97.33v-1.16c.23-.07.45-.15.66-.23s.42-.17.62-.28.41-.21.62-.34.42-.27.65-.43h.57Z" style="fill:#8a2922;"/><path d="m185.84,178.02v-1.31c.55.37,1.11.56,1.68.56s1.03-.15,1.38-.44.52-.68.52-1.16-.18-.85-.53-1.11-.86-.4-1.52-.4c-.23,0-.69.02-1.38.07l.3-4.42h4.14v1.16h-3.01l-.14,2.1c.27-.02.51-.02.73-.02.89,0,1.58.23,2.07.69s.73,1.08.73,1.88c0,.83-.28,1.5-.83,2s-1.32.75-2.29.75c-.82,0-1.43-.12-1.83-.35Z" style="fill:#8a2922;"/></g><g><path d="m153.14,111.31h-1.44v-8.4h1.44v8.4Z" style="fill:#e8e8e8;"/><path d="m162.33,111.31h-1.52l-4.01-6.18c-.1-.16-.19-.32-.25-.49h-.04c.03.18.05.56.05,1.15v5.51h-1.35v-8.4h1.62l3.88,6.03c.16.25.27.42.32.52h.02c-.04-.22-.06-.6-.06-1.13v-5.41h1.34v8.4Z" style="fill:#e8e8e8;"/><path d="m165.8,108.26v3.05h-1.39v-8.4h2.55c.96,0,1.71.22,2.24.67s.8,1.08.8,1.9-.28,1.48-.83,2-1.3.78-2.25.78h-1.12Zm0-4.21v3.07h.9c.6,0,1.05-.14,1.37-.42s.47-.67.47-1.17c0-.99-.57-1.48-1.72-1.48h-1.01Z" style="fill:#e8e8e8;"/><path d="m177.89,107.91c0,2.36-1.12,3.54-3.35,3.54s-3.21-1.13-3.21-3.4v-5.14h1.39v4.85c0,1.65.64,2.47,1.92,2.47s1.85-.79,1.85-2.38v-4.94h1.39v5Z" style="fill:#e8e8e8;"/><path d="m185.25,104.09h-2.41v7.22h-1.39v-7.22h-2.41v-1.18h6.22v1.18Z" style="fill:#e8e8e8;"/></g><g><path d="m159.08,131.39h-2.41v7.22h-1.39v-7.22h-2.41v-1.18h6.22v1.18Z" style="fill:#e8e8e8;"/><path d="m167.06,138.61h-1.4v-3.64h-3.96v3.64h-1.39v-8.4h1.39v3.53h3.96v-3.53h1.4v8.4Z" style="fill:#e8e8e8;"/><path d="m175.62,138.61h-1.63l-1.34-2.25c-.12-.21-.24-.38-.35-.53s-.23-.27-.35-.36-.25-.16-.39-.21-.3-.06-.47-.06h-.56v3.41h-1.39v-8.4h2.77c.39,0,.76.05,1.09.14s.62.24.87.42.44.43.58.71.21.61.21.99c0,.3-.04.57-.13.82s-.21.47-.38.66-.36.36-.59.5-.49.24-.77.32v.02c.15.09.29.18.4.28s.22.21.32.32.2.23.3.37.21.3.33.48l1.49,2.36Zm-5.1-7.27v2.73h1.16c.21,0,.41-.03.59-.1s.34-.16.47-.29.24-.28.31-.46.11-.38.11-.6c0-.4-.13-.72-.38-.94s-.62-.34-1.1-.34h-1.17Z" style="fill:#e8e8e8;"/><path d="m183.06,135.21c0,2.36-1.12,3.54-3.35,3.54s-3.21-1.13-3.21-3.4v-5.14h1.39v4.85c0,1.65.64,2.47,1.92,2.47s1.85-.79,1.85-2.38v-4.94h1.39v5Z" style="fill:#e8e8e8;"/></g><circle cx="167.6" cy="114.96" r="2.37" style="fill:#e8e8e8;"/><circle cx="167.6" cy="144.47" r="2.37" style="fill:#e8e8e8;"/></g><rect x="9.31" y="95.46" width="54.56" height="62.77" style="fill:#8a2922;"/><g><path d="m19.97,108.91h-1.44v-8.4h1.44v8.4Z" style="fill:#e8e8e8;"/><path d="m29.16,108.91h-1.52l-4.01-6.18c-.1-.16-.19-.32-.25-.49h-.04c.03.18.05.56.05,1.15v5.51h-1.35v-8.4h1.62l3.88,6.03c.16.25.27.42.32.52h.02c-.04-.22-.06-.6-.06-1.13v-5.41h1.34v8.4Z" style="fill:#e8e8e8;"/><path d="m32.63,105.87v3.05h-1.39v-8.4h2.55c.96,0,1.71.22,2.24.67s.8,1.08.8,1.9-.28,1.48-.83,2-1.3.78-2.25.78h-1.12Zm0-4.21v3.07h.9c.6,0,1.05-.14,1.37-.42s.47-.67.47-1.17c0-.99-.57-1.48-1.72-1.48h-1.01Z" style="fill:#e8e8e8;"/><path d="m44.72,105.52c0,2.36-1.12,3.54-3.35,3.54s-3.21-1.13-3.21-3.4v-5.14h1.39v4.85c0,1.65.64,2.47,1.92,2.47s1.85-.79,1.85-2.38v-4.94h1.39v5Z" style="fill:#e8e8e8;"/><path d="m52.09,101.7h-2.41v7.22h-1.39v-7.22h-2.41v-1.18h6.22v1.18Z" style="fill:#e8e8e8;"/><path d="m55.88,100.32v8.59h-1.36v-6.93c-.25.18-.51.33-.79.45s-.61.23-.97.33v-1.16c.23-.07.45-.15.66-.23s.42-.17.62-.28.41-.21.62-.34.42-.27.65-.43h.57Z" style="fill:#e8e8e8;"/></g><g><path d="m19.07,138.61h-1.44v-8.4h1.44v8.4Z" style="fill:#e8e8e8;"/><path d="m28.26,138.61h-1.52l-4.01-6.18c-.1-.16-.19-.32-.25-.49h-.04c.03.18.05.56.05,1.15v5.51h-1.35v-8.4h1.62l3.88,6.03c.16.25.27.42.32.52h.02c-.04-.22-.06-.6-.06-1.13v-5.41h1.34v8.4Z" style="fill:#e8e8e8;"/><path d="m31.73,135.56v3.05h-1.39v-8.4h2.55c.96,0,1.71.22,2.24.67s.8,1.08.8,1.9-.28,1.48-.83,2-1.3.78-2.25.78h-1.12Zm0-4.21v3.07h.9c.6,0,1.05-.14,1.37-.42s.47-.67.47-1.17c0-.99-.57-1.48-1.72-1.48h-1.01Z" style="fill:#e8e8e8;"/><path d="m43.82,135.21c0,2.36-1.12,3.54-3.35,3.54s-3.21-1.13-3.21-3.4v-5.14h1.39v4.85c0,1.65.64,2.47,1.92,2.47s1.85-.79,1.85-2.38v-4.94h1.39v5Z" style="fill:#e8e8e8;"/><path d="m51.18,131.39h-2.41v7.22h-1.39v-7.22h-2.41v-1.18h6.22v1.18Z" style="fill:#e8e8e8;"/><path d="m57.22,138.61h-5.27v-.65c0-.27.04-.51.11-.75s.17-.45.3-.66.27-.4.44-.58.35-.36.54-.53.39-.33.59-.49.39-.32.59-.48c.18-.15.34-.3.49-.45s.28-.3.38-.45.19-.32.25-.5.09-.36.09-.57c0-.22-.03-.42-.1-.58s-.16-.3-.29-.42-.27-.2-.44-.25-.35-.08-.55-.08c-.34,0-.69.08-1.05.24s-.7.4-1.03.72v-1.31c.17-.13.35-.24.52-.34s.36-.18.54-.24.38-.11.59-.14.43-.05.66-.05c.38,0,.72.05,1.03.15s.57.25.79.44.39.43.51.72.18.62.18,1c0,.34-.04.65-.13.92s-.2.52-.36.76-.34.46-.56.67-.46.43-.73.65c-.23.18-.45.36-.68.54s-.43.34-.61.51-.33.33-.44.5-.17.33-.17.5v.03h3.79v1.17Z" style="fill:#e8e8e8;"/></g><g><path d="m33.25,86.87v8.59h-1.36v-6.93c-.25.18-.51.33-.79.45s-.61.23-.97.33v-1.16c.23-.07.45-.15.66-.23s.42-.17.62-.28.41-.21.62-.34.42-.27.65-.43h.57Z" style="fill:#8a2922;"/><path d="m40.32,95.46h-5.27v-.65c0-.27.04-.51.11-.75s.17-.45.3-.66.27-.4.44-.58.35-.36.54-.53.39-.33.59-.49.39-.32.59-.48c.18-.15.34-.3.49-.45s.28-.3.38-.45.19-.32.25-.5.09-.36.09-.57c0-.22-.03-.42-.1-.58s-.16-.3-.29-.42-.27-.2-.44-.25-.35-.08-.55-.08c-.34,0-.69.08-1.05.24s-.7.4-1.03.72v-1.31c.17-.13.35-.24.52-.34s.36-.18.54-.24.38-.11.59-.14.43-.05.66-.05c.38,0,.72.05,1.03.15s.57.25.79.44.39.43.51.72.18.62.18,1c0,.34-.04.65-.13.92s-.2.52-.36.76-.34.46-.56.67-.46.43-.73.65c-.23.18-.45.36-.68.54s-.43.34-.61.51-.33.33-.44.5-.17.33-.17.5v.03h3.79v1.17Z" style="fill:#8a2922;"/></g><circle cx="36.59" cy="114.96" r="2.37" style="fill:#e8e8e8;"/><circle cx="36.59" cy="142.67" r="2.37" style="fill:#e8e8e8;"/><polyline points="167.6 144.47 102.1 144.47 102.1 114.96 36.59 114.96" style="fill:none; stroke:#323333; stroke-linecap:round; stroke-miterlimit:10; stroke-width:1.42px;"/><g><rect x="419.99" y="95.46" width="54.56" height="62.77" style="fill:#8a2922;"/><g><path d="m444.04,86.87v8.59h-1.36v-6.93c-.25.18-.51.33-.79.45s-.61.23-.97.33v-1.16c.23-.07.45-.15.66-.23s.42-.17.62-.28.41-.21.62-.34.42-.27.65-.43h.57Z" style="fill:#8a2922;"/><path d="m446.17,95.27v-1.31c.55.37,1.11.56,1.68.56s1.03-.15,1.38-.44.52-.68.52-1.16-.18-.85-.53-1.11-.86-.4-1.52-.4c-.23,0-.69.02-1.38.07l.3-4.42h4.14v1.16h-3.01l-.14,2.1c.27-.02.51-.02.73-.02.89,0,1.58.23,2.07.69s.73,1.08.73,1.88c0,.83-.28,1.5-.83,2s-1.32.75-2.29.75c-.82,0-1.43-.12-1.83-.35Z" style="fill:#8a2922;"/></g><g><path d="m433.8,111.31h-1.44v-8.4h1.44v8.4Z" style="fill:#e8e8e8;"/><path d="m442.99,111.31h-1.52l-4.01-6.18c-.1-.16-.19-.32-.25-.49h-.04c.03.18.05.56.05,1.15v5.51h-1.35v-8.4h1.62l3.88,6.03c.16.25.27.42.32.52h.02c-.04-.22-.06-.6-.06-1.13v-5.41h1.34v8.4Z" style="fill:#e8e8e8;"/><path d="m446.46,108.26v3.05h-1.39v-8.4h2.55c.96,0,1.71.22,2.24.67s.8,1.08.8,1.9-.28,1.48-.83,2-1.3.78-2.25.78h-1.12Zm0-4.21v3.07h.9c.6,0,1.05-.14,1.37-.42s.47-.67.47-1.17c0-.99-.57-1.48-1.72-1.48h-1.01Z" style="fill:#e8e8e8;"/><path d="m458.55,107.91c0,2.36-1.12,3.54-3.35,3.54s-3.21-1.13-3.21-3.4v-5.14h1.39v4.85c0,1.65.64,2.47,1.92,2.47s1.85-.79,1.85-2.38v-4.94h1.39v5Z" style="fill:#e8e8e8;"/><path d="m465.92,104.09h-2.41v7.22h-1.39v-7.22h-2.41v-1.18h6.22v1.18Z" style="fill:#e8e8e8;"/></g><g><path d="m439.74,131.39h-2.41v7.22h-1.39v-7.22h-2.41v-1.18h6.22v1.18Z" style="fill:#e8e8e8;"/><path d="m447.72,138.61h-1.4v-3.64h-3.96v3.64h-1.39v-8.4h1.39v3.53h3.96v-3.53h1.4v8.4Z" style="fill:#e8e8e8;"/><path d="m456.29,138.61h-1.63l-1.34-2.25c-.12-.21-.24-.38-.35-.53s-.23-.27-.35-.36-.25-.16-.39-.21-.3-.06-.47-.06h-.56v3.41h-1.39v-8.4h2.77c.39,0,.76.05,1.09.14s.62.24.87.42.44.43.58.71.21.61.21.99c0,.3-.04.57-.13.82s-.21.47-.38.66-.36.36-.59.5-.49.24-.77.32v.02c.15.09.29.18.4.28s.22.21.32.32.2.23.3.37.21.3.33.48l1.49,2.36Zm-5.1-7.27v2.73h1.16c.21,0,.41-.03.59-.1s.34-.16.47-.29.24-.28.31-.46.11-.38.11-.6c0-.4-.13-.72-.38-.94s-.62-.34-1.1-.34h-1.17Z" style="fill:#e8e8e8;"/><path d="m463.73,135.21c0,2.36-1.12,3.54-3.35,3.54s-3.21-1.13-3.21-3.4v-5.14h1.39v4.85c0,1.65.64,2.47,1.92,2.47s1.85-.79,1.85-2.38v-4.94h1.39v5Z" style="fill:#e8e8e8;"/></g><circle cx="448.27" cy="114.96" r="2.37" style="fill:#e8e8e8;"/><circle cx="448.27" cy="144.47" r="2.37" style="fill:#e8e8e8;"/></g><rect x="550.02" y="95.46" width="54.56" height="62.77" style="fill:#8a2922;"/><g><path d="m560.68,108.91h-1.44v-8.4h1.44v8.4Z" style="fill:#e8e8e8;"/><path d="m569.88,108.91h-1.52l-4.01-6.18c-.1-.16-.19-.32-.25-.49h-.04c.03.18.05.56.05,1.15v5.51h-1.35v-8.4h1.62l3.88,6.03c.16.25.27.42.32.52h.02c-.04-.22-.06-.6-.06-1.13v-5.41h1.34v8.4Z" style="fill:#e8e8e8;"/><path d="m573.34,105.87v3.05h-1.39v-8.4h2.55c.96,0,1.71.22,2.24.67s.8,1.08.8,1.9-.28,1.48-.83,2-1.3.78-2.25.78h-1.12Zm0-4.21v3.07h.9c.6,0,1.05-.14,1.37-.42s.47-.67.47-1.17c0-.99-.57-1.48-1.72-1.48h-1.01Z" style="fill:#e8e8e8;"/><path d="m585.43,105.52c0,2.36-1.12,3.54-3.35,3.54s-3.21-1.13-3.21-3.4v-5.14h1.39v4.85c0,1.65.64,2.47,1.92,2.47s1.85-.79,1.85-2.38v-4.94h1.39v5Z" style="fill:#e8e8e8;"/><path d="m592.8,101.7h-2.41v7.22h-1.39v-7.22h-2.41v-1.18h6.22v1.18Z" style="fill:#e8e8e8;"/><path d="m596.59,100.32v8.59h-1.36v-6.93c-.25.18-.51.33-.79.45s-.61.23-.97.33v-1.16c.23-.07.45-.15.66-.23s.42-.17.62-.28.41-.21.62-.34.42-.27.65-.43h.57Z" style="fill:#e8e8e8;"/></g><g><path d="m559.78,138.61h-1.44v-8.4h1.44v8.4Z" style="fill:#e8e8e8;"/><path d="m568.97,138.61h-1.52l-4.01-6.18c-.1-.16-.19-.32-.25-.49h-.04c.03.18.05.56.05,1.15v5.51h-1.35v-8.4h1.62l3.88,6.03c.16.25.27.42.32.52h.02c-.04-.22-.06-.6-.06-1.13v-5.41h1.34v8.4Z" style="fill:#e8e8e8;"/><path d="m572.44,135.56v3.05h-1.39v-8.4h2.55c.96,0,1.71.22,2.24.67s.8,1.08.8,1.9-.28,1.48-.83,2-1.3.78-2.25.78h-1.12Zm0-4.21v3.07h.9c.6,0,1.05-.14,1.37-.42s.47-.67.47-1.17c0-.99-.57-1.48-1.72-1.48h-1.01Z" style="fill:#e8e8e8;"/><path d="m584.53,135.21c0,2.36-1.12,3.54-3.35,3.54s-3.21-1.13-3.21-3.4v-5.14h1.39v4.85c0,1.65.64,2.47,1.92,2.47s1.85-.79,1.85-2.38v-4.94h1.39v5Z" style="fill:#e8e8e8;"/><path d="m591.89,131.39h-2.41v7.22h-1.39v-7.22h-2.41v-1.18h6.22v1.18Z" style="fill:#e8e8e8;"/><path d="m597.93,138.61h-5.27v-.65c0-.27.04-.51.11-.75s.17-.45.3-.66.27-.4.44-.58.35-.36.54-.53.39-.33.59-.49.39-.32.59-.48c.18-.15.34-.3.49-.45s.28-.3.38-.45.19-.32.25-.5.09-.36.09-.57c0-.22-.03-.42-.1-.58s-.16-.3-.29-.42-.27-.2-.44-.25-.35-.08-.55-.08c-.34,0-.69.08-1.05.24s-.7.4-1.03.72v-1.31c.17-.13.35-.24.52-.34s.36-.18.54-.24.38-.11.59-.14.43-.05.66-.05c.38,0,.72.05,1.03.15s.57.25.79.44.39.43.51.72.18.62.18,1c0,.34-.04.65-.13.92s-.2.52-.36.76-.34.46-.56.67-.46.43-.73.65c-.23.18-.45.36-.68.54s-.43.34-.61.51-.33.33-.44.5-.17.33-.17.5v.03h3.79v1.17Z" style="fill:#e8e8e8;"/></g><g><path d="m573.96,86.87v8.59h-1.36v-6.93c-.25.18-.51.33-.79.45s-.61.23-.97.33v-1.16c.23-.07.45-.15.66-.23s.42-.17.62-.28.41-.21.62-.34.42-.27.65-.43h.57Z" style="fill:#8a2922;"/><path d="m581.03,95.46h-5.27v-.65c0-.27.04-.51.11-.75s.17-.45.3-.66.27-.4.44-.58.35-.36.54-.53.39-.33.59-.49.39-.32.59-.48c.18-.15.34-.3.49-.45s.28-.3.38-.45.19-.32.25-.5.09-.36.09-.57c0-.22-.03-.42-.1-.58s-.16-.3-.29-.42-.27-.2-.44-.25-.35-.08-.55-.08c-.34,0-.69.08-1.05.24s-.7.4-1.03.72v-1.31c.17-.13.35-.24.52-.34s.36-.18.54-.24.38-.11.59-.14.43-.05.66-.05c.38,0,.72.05,1.03.15s.57.25.79.44.39.43.51.72.18.62.18,1c0,.34-.04.65-.13.92s-.2.52-.36.76-.34.46-.56.67-.46.43-.73.65c-.23.18-.45.36-.68.54s-.43.34-.61.51-.33.33-.44.5-.17.33-.17.5v.03h3.79v1.17Z" style="fill:#8a2922;"/></g><circle cx="577.3" cy="114.96" r="2.37" style="fill:#e8e8e8;"/><circle cx="577.3" cy="142.67" r="2.37" style="fill:#e8e8e8;"/><line x1="167.6" y1="114.96" x2="298.18" y2="114.96" style="fill:none; stroke:#323333; stroke-linecap:round; stroke-miterlimit:10; stroke-width:1.42px;"/><line x1="315.71" y1="114.96" x2="448.27" y2="114.96" style="fill:none; stroke:#323333; stroke-linecap:round; stroke-miterlimit:10; stroke-width:1.42px;"/><polyline points="448.27 144.47 512.09 144.47 512.09 114.96 577.3 114.96" style="fill:none; stroke:#323333; stroke-linecap:round; stroke-miterlimit:10; stroke-width:1.42px;"/><g><path d="m13.34,167.21h-1.53l-.76-2.14h-3.3l-.73,2.14h-1.52l3.15-8.4h1.57l3.12,8.4Zm-2.65-3.28l-1.17-3.35c-.04-.11-.07-.29-.11-.53h-.02c-.04.22-.07.4-.12.53l-1.15,3.35h2.57Z" style="fill:#8a2922;"/><path d="m19.14,167.21h-4.65v-8.4h1.39v7.22h3.26v1.18Z" style="fill:#8a2922;"/><path d="m25.75,159.99h-2.41v7.22h-1.39v-7.22h-2.41v-1.18h6.22v1.18Z" style="fill:#8a2922;"/><path d="m30.44,167.35c-1.21,0-2.18-.39-2.91-1.18s-1.09-1.81-1.09-3.06c0-1.35.37-2.43,1.11-3.23s1.75-1.21,3.02-1.21c1.18,0,2.13.39,2.85,1.17s1.08,1.8,1.08,3.06c0,1.37-.37,2.46-1.11,3.25s-1.72,1.2-2.96,1.2Zm.06-7.46c-.77,0-1.4.29-1.88.86s-.72,1.33-.72,2.27.23,1.69.7,2.26,1.08.86,1.84.86c.8,0,1.44-.27,1.9-.81s.7-1.3.7-2.28-.23-1.78-.68-2.33-1.07-.82-1.87-.82Z" style="fill:#8a2922;"/><path d="m44.74,159.99h-2.41v7.22h-1.39v-7.22h-2.41v-1.18h6.22v1.18Z" style="fill:#8a2922;"/><path d="m45.58,166.88v-1.44c.13.12.28.22.46.32s.37.17.57.24.4.11.6.15.38.05.55.05c.59,0,1.02-.1,1.31-.29s.43-.48.43-.85c0-.2-.05-.37-.14-.52s-.23-.28-.4-.4-.37-.24-.61-.35-.48-.23-.75-.35c-.29-.15-.55-.31-.8-.46s-.46-.33-.64-.52-.32-.4-.43-.64-.16-.52-.16-.84c0-.39.09-.74.27-1.03s.41-.53.7-.72.62-.33.99-.42.75-.14,1.14-.14c.88,0,1.52.1,1.92.3v1.38c-.48-.34-1.09-.52-1.84-.52-.21,0-.41.02-.62.06s-.39.1-.55.19-.29.21-.4.35-.15.31-.15.51c0,.19.04.35.12.49s.19.26.34.38.33.22.55.33.47.22.75.35c.29.15.57.31.83.48s.49.35.69.56.35.43.47.68.17.53.17.85c0,.43-.09.79-.26,1.08s-.4.53-.69.71-.63.32-1,.4-.78.12-1.2.12c-.14,0-.31-.01-.52-.03s-.42-.05-.63-.09-.42-.09-.61-.15-.35-.12-.46-.2Z" style="fill:#8a2922;"/><path d="m55.07,158.62v8.59h-1.36v-6.93c-.25.18-.51.33-.79.45s-.61.23-.97.33v-1.16c.23-.07.45-.15.66-.23s.42-.17.62-.28.41-.21.62-.34.42-.27.65-.43h.57Z" style="fill:#8a2922;"/><path d="m59.89,158.62v8.59h-1.36v-6.93c-.25.18-.51.33-.79.45s-.61.23-.97.33v-1.16c.23-.07.45-.15.66-.23s.42-.17.62-.28.41-.21.62-.34.42-.27.65-.43h.57Z" style="fill:#8a2922;"/><path d="m66.97,167.21h-5.27v-.65c0-.27.04-.51.11-.75s.17-.45.3-.66.27-.4.44-.58.35-.36.54-.53.39-.33.59-.49.39-.32.59-.48c.18-.15.34-.3.49-.45s.28-.3.38-.45.19-.32.25-.5.09-.36.09-.57c0-.22-.03-.42-.1-.58s-.16-.3-.29-.42-.27-.2-.44-.25-.35-.08-.55-.08c-.34,0-.69.08-1.05.24s-.7.4-1.03.72v-1.31c.17-.13.35-.24.52-.34s.36-.18.54-.24.38-.11.59-.14.43-.05.66-.05c.38,0,.72.05,1.03.15s.57.25.79.44.39.43.51.72.18.62.18,1c0,.34-.04.65-.13.92s-.2.52-.36.76-.34.46-.56.67-.46.43-.73.65c-.23.18-.45.36-.68.54s-.43.34-.61.51-.33.33-.44.5-.17.33-.17.5v.03h3.79v1.17Z" style="fill:#8a2922;"/></g></g><line x1="283.72" y1="266.83" x2="283.72" y2="327.28" style="fill:none; stroke:#323333; stroke-linecap:round; stroke-miterlimit:10; stroke-width:1.42px;"/><line x1="301.26" y1="266.83" x2="301.26" y2="327.28" style="fill:none; stroke:#323333; stroke-linecap:round; stroke-miterlimit:10; stroke-width:1.42px;"/><line x1="320.53" y1="266.83" x2="320.53" y2="327.28" style="fill:none; stroke:#323333; stroke-linecap:round; stroke-miterlimit:10; stroke-width:1.42px;"/><line x1="338.06" y1="266.83" x2="338.06" y2="327.28" style="fill:none; stroke:#323333; stroke-linecap:round; stroke-miterlimit:10; stroke-width:1.42px;"/><g><polyline points="283.72 384.09 283.72 376.02 209.1 376.02 209.1 316.43" style="fill:none; stroke:#e8e8e8; stroke-miterlimit:10; stroke-width:2.13px;"/><polyline points="283.72 384.09 283.72 376.02 209.1 376.02 209.1 316.43" style="fill:none; stroke:#323333; stroke-linecap:round; stroke-miterlimit:10; stroke-width:1.42px;"/></g><g><polyline points="301.26 384.09 301.26 375.91 405.23 375.91 405.23 316.43" style="fill:none; stroke:#e8e8e8; stroke-miterlimit:10; stroke-width:2.13px;"/><polyline points="301.26 384.09 301.26 375.91 405.23 375.91 405.23 316.43" style="fill:none; stroke:#323333; stroke-linecap:round; stroke-miterlimit:10; stroke-width:1.42px;"/></g><path d="m280.6,279.62h-3.1v-5.6h.93v4.82h2.17v.79Z" style="fill:#323333;"/><path d="m299.95,279.62h-1.09l-.89-1.5c-.08-.14-.16-.26-.24-.35s-.15-.18-.23-.24-.17-.11-.26-.14-.2-.04-.32-.04h-.38v2.27h-.93v-5.6h1.84c.26,0,.51.03.73.09.22.06.41.16.58.28s.29.28.38.47.14.41.14.66c0,.2-.03.38-.09.54s-.14.31-.25.44-.24.24-.39.33-.32.16-.51.21v.02c.1.06.19.12.27.19s.15.14.21.21.13.16.2.25.14.2.22.32l1,1.57Zm-3.4-4.85v1.82h.77c.14,0,.28-.02.4-.07s.23-.11.31-.19.16-.18.21-.3.07-.25.07-.4c0-.27-.08-.48-.25-.63s-.41-.23-.73-.23h-.78Z" style="fill:#323333;"/><path d="m213.2,466.55h-3.1v-5.6h.93v4.82h2.17v.79Z" style="fill:#323333;"/><path d="m231.63,466.55h-1.09l-.89-1.5c-.08-.14-.16-.26-.24-.35s-.15-.18-.23-.24-.17-.11-.26-.14-.2-.04-.32-.04h-.38v2.27h-.93v-5.6h1.84c.26,0,.51.03.73.09s.41.16.58.28.29.28.38.47.14.41.14.66c0,.2-.03.38-.09.54s-.14.31-.25.44-.24.24-.39.33-.32.16-.51.21v.02c.1.06.19.12.27.19s.15.14.21.21.13.16.2.25.14.2.22.32l1,1.57Zm-3.4-4.85v1.82h.77c.14,0,.28-.02.4-.07s.23-.11.31-.19.16-.18.21-.3.07-.25.07-.4c0-.27-.08-.48-.25-.63s-.41-.23-.73-.23h-.78Z" style="fill:#323333;"/><path d="m247.6,466.55h-3.1v-5.6h.93v4.82h2.17v.79Z" style="fill:#323333;"/><path d="m266.02,466.55h-1.09l-.89-1.5c-.08-.14-.16-.26-.24-.35s-.15-.18-.23-.24-.17-.11-.26-.14-.2-.04-.32-.04h-.38v2.27h-.93v-5.6h1.84c.26,0,.51.03.73.09s.41.16.58.28.29.28.38.47.14.41.14.66c0,.2-.03.38-.09.54s-.14.31-.25.44-.24.24-.39.33-.32.16-.51.21v.02c.1.06.19.12.27.19s.15.14.21.21.13.16.2.25.14.2.22.32l1,1.57Zm-3.4-4.85v1.82h.77c.14,0,.28-.02.4-.07s.23-.11.31-.19.16-.18.21-.3.07-.25.07-.4c0-.27-.08-.48-.25-.63s-.41-.23-.73-.23h-.78Z" style="fill:#323333;"/><path d="m317.56,279.62h-3.1v-5.6h.93v4.82h2.17v.79Z" style="fill:#323333;"/><path d="m336.91,279.62h-1.09l-.89-1.5c-.08-.14-.16-.26-.24-.35-.08-.1-.16-.18-.23-.24-.08-.06-.17-.11-.26-.14s-.2-.04-.32-.04h-.38v2.27h-.93v-5.6h1.84c.26,0,.5.03.73.09.22.06.41.16.58.28s.29.28.38.47c.09.19.14.41.14.66,0,.2-.03.38-.09.54s-.14.31-.25.44c-.11.13-.24.24-.39.33s-.32.16-.51.21v.02c.1.06.19.12.27.19.08.07.15.14.21.21.07.07.13.16.2.25s.14.2.22.32l1,1.57Zm-3.4-4.85v1.82h.77c.14,0,.28-.02.4-.07s.23-.11.31-.19c.09-.08.16-.18.21-.3.05-.12.07-.25.07-.4,0-.27-.08-.48-.25-.63-.17-.15-.41-.23-.73-.23h-.78Z" style="fill:#323333;"/><path d="m209.1,316.43V117.74c4.57,0,4.57-5.56,0-5.56v-26.76s89.08,0,89.08,0" style="fill:none; stroke:#323333; stroke-linecap:round; stroke-miterlimit:10; stroke-width:1.42px;"/><path d="m405.23,316.43V117.5c4.33,0,4.33-5.07,0-5.07v-27h-89.52" style="fill:none; stroke:#323333; stroke-linecap:round; stroke-miterlimit:10; stroke-width:1.42px;"/><g><path d="m424.24,510.66h-1.8v5.53h-.66v-5.53h-1.79v-.56h4.25v.56Z" style="fill:#231815;"/><path d="m427.81,516c-.25.12-.7.27-1.37.27-1.27,0-2.03-.9-2.03-2.2,0-1.37.77-2.35,1.94-2.35,1.34,0,1.69,1.23,1.69,1.99,0,.15,0,.26-.02.37h-2.97c0,1.21.7,1.66,1.48,1.66.54,0,.87-.11,1.14-.22l.13.48Zm-.42-2.42c0-.59-.24-1.36-1.1-1.36-.8,0-1.15.76-1.21,1.36h2.31Z" style="fill:#231815;"/><path d="m431.97,516.03c-.19.1-.62.25-1.18.25-1.25,0-2.07-.89-2.07-2.22s.89-2.33,2.23-2.33c.49,0,.88.14,1.05.23l-.17.54c-.18-.1-.47-.22-.9-.22-1.01,0-1.54.81-1.54,1.74,0,1.06.63,1.72,1.51,1.72.43,0,.73-.12.94-.22l.12.51Z" style="fill:#231815;"/><path d="m436.39,516.19h-.66v-2.57c0-.71-.26-1.33-1.01-1.33-.51,0-1.15.42-1.15,1.22v2.68h-.66v-6.4h.66v2.71h.02c.29-.48.82-.78,1.35-.78s1.46.33,1.46,1.81v2.65Z" style="fill:#231815;"/><path d="m441.17,516.19h-.66v-2.57c0-.71-.26-1.34-1.02-1.34-.57,0-1.14.48-1.14,1.24v2.67h-.66v-3.24c0-.45-.02-.78-.03-1.13h.59l.04.71h.02c.22-.42.72-.81,1.4-.81.54,0,1.47.33,1.47,1.81v2.65Z" style="fill:#231815;"/><path d="m446.16,513.97c0,1.62-1.07,2.31-2.04,2.31-1.12,0-1.98-.84-1.98-2.25,0-1.49.93-2.31,2.04-2.31,1.19,0,1.98.91,1.98,2.25Zm-2.01-1.73c-.94,0-1.33.93-1.33,1.77,0,.97.54,1.75,1.32,1.75s1.34-.78,1.34-1.77c0-.78-.38-1.75-1.33-1.75Z" style="fill:#231815;"/><path d="m450.76,510.66h-1.8v5.53h-.66v-5.53h-1.79v-.56h4.25v.56Z" style="fill:#231815;"/><path d="m455.62,513.74c0,1.83-.94,2.54-2.16,2.54-1.14,0-2.04-.66-2.04-2.5v-3.68h.66v3.69c0,1.38.61,1.94,1.41,1.94.88,0,1.46-.59,1.46-1.94v-3.69h.66v3.64Z" style="fill:#231815;"/><path d="m460.55,510.66h-1.8v5.53h-.66v-5.53h-1.79v-.56h4.25v.56Z" style="fill:#231815;"/><path d="m468.23,510.49s-.06.07-.1.09c-.43,1.02-.94,1.9-1.6,2.75.87.7,2.18,1.89,2.93,2.71l-.49.42c-.7-.82-1.99-2.03-2.81-2.69-.7.86-1.92,2.02-3.08,2.69-.09-.12-.28-.32-.42-.43,2.21-1.21,3.97-3.49,4.69-5.22h-3.93v-.54h4.24l.1-.04.46.26Z" style="fill:#231815;"/><path d="m475.04,515.74c.32,0,1.18-.04,1.68-.12,0,.18.02.4.03.58-.53.06-1.33.09-1.66.09h-2c-1.21,0-1.79-.52-1.79-1.66v-4.67l.78.05c-.02.08-.07.13-.22.15v2.6c1.22-.38,2.93-1.02,3.97-1.58l.41.55s-.06.02-.09.02c-.04,0-.08,0-.12-.02-.97.49-2.79,1.17-4.17,1.58v1.33c0,.82.39,1.11,1.21,1.11h1.95Zm1.66-6.37c.5,0,.9.4.9.9s-.4.9-.9.9-.9-.4-.9-.9.42-.9.9-.9Zm.62.9c0-.35-.28-.64-.62-.64s-.63.29-.63.64.28.64.63.64.62-.3.62-.64Z" style="fill:#231815;"/><path d="m478.21,512.72h6.68v.57h-6.37c-.05.08-.15.14-.26.15l-.05-.72Z" style="fill:#231815;"/><path d="m492.27,511.55s-.03.07-.07.1c-.1,2.3-.33,3.75-.64,4.32-.32.55-.78.58-1.05.58-.31,0-.88-.07-1.43-.18.02-.16,0-.4-.02-.57.6.14,1.21.2,1.4.2.29,0,.45-.07.62-.38.24-.49.44-1.83.52-3.63h-2.56c-.4,1.91-1.19,3.49-2.64,4.58-.1-.1-.3-.26-.46-.35,1.38-1.04,2.11-2.41,2.5-4.23h-2.21v-.54h2.32c.1-.57.14-1.08.18-1.74l.79.06c0,.09-.08.14-.2.14-.05.58-.09,1.02-.18,1.54h2.59l.13-.05.41.14Z" style="fill:#231815;"/><path d="m493.65,512.72h6.68v.57h-6.37c-.05.08-.15.14-.26.15l-.05-.72Z" style="fill:#231815;"/><path d="m501.25,510.28v-.47h3.92v.47h-1.3v1.22h1.03v5.16h-.46v-.39h-2.45v.5h-.46v-5.26h.96v-1.22h-1.24Zm1.3,1.7h-.57v2.54h2.45v-1.03c-.06.24-.16.32-.34.32h-.26c-.29,0-.38-.09-.38-.47v-1.35h-.57v.52c0,.5-.1,1.21-.58,1.7-.06-.07-.2-.18-.28-.22.44-.46.52-1.04.52-1.5v-.51Zm-.57,3.84h2.45v-.86h-2.45v.86Zm1.47-4.31v-1.22h-.56v1.22h.56Zm.58,1.94c.09,0,.11-.05.12-.51.06.06.18.1.27.13v-1.09h-.63v1.34c0,.11,0,.13.07.13h.17Zm1.99,2.43c0,.28.07.34.44.34h1.27c.37,0,.42-.21.46-1.4.12.1.34.18.49.22-.06,1.33-.22,1.68-.92,1.68h-1.35c-.7,0-.92-.17-.92-.85v-3.2h2.38v-2.29h-2.46v-.5h2.99v3.68h-.53v-.38h-1.85v2.7Z" style="fill:#231815;"/><path d="m511.49,512.02c.37.51.75,1.21.89,1.66l-.43.21c-.04-.14-.1-.3-.18-.48-.24.02-.48.02-.71.04v3.42h-.48v-3.4c-.45.02-.85.03-1.17.05,0,.06-.06.09-.11.1l-.14-.6h.56c.18-.22.36-.46.55-.74-.25-.37-.66-.84-1.03-1.18l.28-.34c.08.07.17.15.26.24.27-.46.58-1.1.76-1.56l.57.24s-.08.07-.17.07c-.21.45-.56,1.1-.86,1.55.18.19.35.39.48.57.34-.52.66-1.06.9-1.52l.56.26s-.09.07-.18.07c-.41.68-1.05,1.63-1.61,2.33l1.35-.02c-.14-.27-.3-.55-.47-.79l.4-.18Zm-1.23,2.17s-.07.08-.16.08c-.11.68-.3,1.45-.54,1.92-.11-.07-.29-.15-.4-.21.23-.45.4-1.21.5-1.94l.59.15Zm1.5-.16c.23.47.46,1.08.54,1.49-.1.03-.19.07-.45.15-.06-.41-.28-1.03-.5-1.51l.42-.13Zm1.87-.19l.3.14s-.03.06-.06.07c-.29,1.25-.9,2.09-1.73,2.55-.07-.11-.24-.3-.34-.38.7-.35,1.23-.98,1.5-1.89h-1.16v-.46h1.39l.09-.02Zm.99-.74c0,.36.3,1.05.47,1.39.38-.3.82-.7,1.08-1.01.39.3.46.34.51.38-.02.04-.1.06-.18.04-.3.27-.79.67-1.19.95.34.52.82.98,1.48,1.26-.1.1-.26.31-.33.45-.94-.49-1.5-1.3-1.85-2.1v1.79c0,.54-.22.59-1.28.59-.02-.14-.09-.34-.15-.48.38,0,.71,0,.81,0,.1,0,.13-.03.13-.12v-3.16h-1.6v-2.83h1.28c.14-.27.27-.61.35-.85l.67.17s-.07.08-.16.08c-.08.17-.19.39-.31.6h1.97v2.83h-1.71Zm-1.6-2.38v.75h2.79v-.75h-2.79Zm0,1.17v.76h2.79v-.76h-2.79Z" style="fill:#231815;"/><path d="m517.59,509.82h6.76v7.04h-.55v-.38h-5.68v.38h-.53v-7.04Zm.53,6.15h5.68v-5.63h-5.68v5.63Zm.94-3.3c.6.24,1.26.54,1.88.88.7-.74,1.29-1.61,1.7-2.6l.62.21c-.02.06-.09.09-.19.08-.42.97-.99,1.82-1.67,2.56.72.41,1.37.85,1.8,1.23l-.33.42c-.43-.4-1.09-.86-1.83-1.3-.64.61-1.38,1.12-2.19,1.52-.07-.11-.22-.31-.33-.41.76-.35,1.45-.82,2.06-1.37-.6-.33-1.22-.63-1.81-.87l.29-.36Zm.07-1.72c.34.44.67,1.02.78,1.42l-.44.2c-.1-.39-.43-.99-.75-1.43l.41-.18Zm1.58-.26c.3.48.56,1.12.63,1.53l-.46.17c-.07-.41-.33-1.06-.61-1.54l.43-.15Z" style="fill:#231815;"/><path d="m528.16,512.53c.27-.5.77-.81,1.45-.81,1.03,0,1.76.89,1.76,2.23,0,1.58-.97,2.33-1.87,2.33-.63,0-1.1-.26-1.41-.82h-.02l-.04.72h-.58c.02-.29.03-.73.03-1.08v-5.32h.66v2.74h.02Zm-.02,1.95c0,.65.49,1.25,1.22,1.25.85,0,1.32-.73,1.32-1.76,0-.91-.45-1.71-1.3-1.71-.76,0-1.25.71-1.25,1.35v.86Z" style="fill:#231815;"/><path d="m535.65,511.83l-1.16,3.09c-.52,1.42-.89,2.23-1.43,2.74-.37.33-.73.47-.89.51l-.18-.56c1.01-.38,1.41-1.48,1.41-1.57,0-.04-.02-.1-.05-.18l-1.54-4.03h.73l.95,2.65c.11.3.21.65.28.91h.02c.07-.26.18-.59.28-.93l.88-2.63h.7Z" style="fill:#231815;"/><path d="m543.15,513.08c0,2.14-1.2,3.2-2.64,3.2-1.51,0-2.58-1.19-2.58-3.09s1.13-3.19,2.65-3.19,2.57,1.25,2.57,3.09Zm-4.53.09c0,1.3.67,2.56,1.91,2.56s1.92-1.22,1.92-2.61c0-1.22-.6-2.57-1.9-2.57s-1.93,1.33-1.93,2.62Z" style="fill:#231815;"/><path d="m544.16,510.09h.66v6.09h-.66v-6.09Z" style="fill:#231815;"/><path d="m550.2,516.19h-.78l-1.99-3.05-.57.66v2.39h-.66v-6.09h.66v2.97h.03c.15-.23.32-.46.47-.66l1.86-2.32h.82l-2.14,2.59,2.31,3.5Z" style="fill:#231815;"/><path d="m555.18,516.19h-.7l-.66-1.97h-2.12l-.64,1.97h-.68l2.01-6.09h.77l2.01,6.09Zm-1.5-2.5l-.6-1.81c-.13-.42-.23-.8-.31-1.16h-.02c-.08.37-.19.75-.3,1.13l-.61,1.83h1.85Z" style="fill:#231815;"/><path d="m562.57,510.1l-1.68,6.08h-.68l-.79-3.25c-.2-.8-.33-1.41-.41-2.02h-.02c-.1.61-.26,1.21-.48,2.01l-.88,3.26h-.68l-1.51-6.08h.7l.74,3.17c.18.77.34,1.5.45,2.11h.02c.09-.62.29-1.33.49-2.12l.84-3.16h.67l.77,3.15c.17.73.34,1.46.43,2.12h.02c.12-.7.29-1.37.48-2.12l.82-3.15h.68Z" style="fill:#231815;"/><path d="m567.62,516.19h-.7l-.66-1.97h-2.12l-.64,1.97h-.68l2.01-6.09h.77l2.01,6.09Zm-1.5-2.5l-.6-1.81c-.13-.42-.23-.8-.31-1.16h-.02c-.08.37-.19.75-.3,1.13l-.61,1.83h1.85Z" style="fill:#231815;"/><path d="m569.3,515.14c-.2.74-.59,1.74-.81,2.12l-.49.06c.18-.49.42-1.46.52-2.09l.78-.09Z" style="fill:#231815;"/><path d="m575.7,510.66h-1.8v5.53h-.66v-5.53h-1.79v-.56h4.25v.56Z" style="fill:#231815;"/><path d="m579.04,515.15c0,.36,0,.74.06,1.04h-.61l-.06-.56h-.02c-.22.34-.67.66-1.29.66-.83,0-1.27-.61-1.27-1.24,0-1.05.91-1.62,2.53-1.61,0-.37,0-1.2-.99-1.2-.38,0-.77.1-1.06.31l-.16-.46c.35-.23.84-.37,1.33-.37,1.23,0,1.55.87,1.55,1.74v1.69Zm-.66-1.22c-.82,0-1.86.12-1.86,1.04,0,.56.35.81.75.81.65,0,1.1-.5,1.1-1.02v-.82Z" style="fill:#231815;"/><path d="m580.5,511.04l.66-.22v1.02h1.13v.52h-1.13v2.52c0,.55.17.86.59.86.2,0,.34-.02.45-.06l.04.51c-.14.06-.37.1-.65.1-1.06,0-1.09-.96-1.09-1.42v-2.5h-.67v-.52h.67v-.79Z" style="fill:#231815;"/><path d="m585.19,512.49c-.16-.1-.46-.26-.85-.26-.48,0-.74.3-.74.65,0,.38.25.55.81.79.7.29,1.11.66,1.11,1.31,0,.78-.59,1.29-1.54,1.29-.43,0-.85-.12-1.14-.3l.18-.51c.23.14.61.3.98.3.58,0,.87-.31.87-.7s-.23-.63-.81-.86c-.74-.3-1.11-.7-1.11-1.23,0-.68.54-1.24,1.42-1.24.42,0,.77.12,1,.26l-.19.5Z" style="fill:#231815;"/><path d="m589.96,515.03c0,.45.02.82.04,1.16h-.6l-.03-.69h-.02c-.2.34-.65.78-1.39.78-.66,0-1.43-.38-1.43-1.88v-2.57h.66v2.45c0,.85.25,1.44.98,1.44.52,0,1.14-.42,1.14-1.18v-2.71h.66v3.2Z" style="fill:#231815;"/><path d="m594.56,511.83l-1.16,3.09c-.52,1.42-.89,2.23-1.43,2.74-.37.33-.73.47-.89.51l-.18-.56c1.01-.38,1.41-1.48,1.41-1.57,0-.04-.02-.1-.05-.18l-1.54-4.03h.73l.95,2.65c.11.3.21.65.28.91h.02c.07-.26.18-.59.28-.93l.88-2.63h.7Z" style="fill:#231815;"/><path d="m598.15,515.15c0,.36,0,.74.06,1.04h-.61l-.06-.56h-.02c-.22.34-.67.66-1.29.66-.83,0-1.27-.61-1.27-1.24,0-1.05.91-1.62,2.53-1.61,0-.37,0-1.2-.99-1.2-.38,0-.77.1-1.06.31l-.16-.46c.35-.23.84-.37,1.33-.37,1.23,0,1.55.87,1.55,1.74v1.69Zm-.66-1.22c-.82,0-1.86.12-1.86,1.04,0,.56.35.81.75.81.65,0,1.1-.5,1.1-1.02v-.82Z" style="fill:#231815;"/><path d="m423.93,525.19h-3.54v-.41l.58-.62c1.42-1.44,2.14-2.31,2.14-3.29,0-.64-.28-1.23-1.14-1.23-.48,0-.91.26-1.2.5l-.22-.46c.37-.33.91-.58,1.55-.58,1.21,0,1.69.88,1.69,1.7,0,1.13-.79,2.09-2.03,3.33l-.47.5v.02h2.65v.54Z" style="fill:#231815;"/><path d="m424.72,522.21c0-2.09.82-3.11,1.94-3.11s1.83,1.07,1.83,3.03c0,2.08-.73,3.15-1.92,3.15-1.09,0-1.85-1.07-1.85-3.07Zm3.09-.05c0-1.5-.36-2.53-1.2-2.53-.71,0-1.22.95-1.22,2.53s.44,2.57,1.19,2.57c.89,0,1.22-1.15,1.22-2.57Z" style="fill:#231815;"/><path d="m432.74,525.19h-3.54v-.41l.58-.62c1.42-1.44,2.14-2.31,2.14-3.29,0-.64-.28-1.23-1.14-1.23-.48,0-.91.26-1.2.5l-.22-.46c.37-.33.91-.58,1.55-.58,1.21,0,1.69.88,1.69,1.7,0,1.13-.79,2.09-2.03,3.33l-.47.5v.02h2.65v.54Z" style="fill:#231815;"/><path d="m437.15,525.19h-3.54v-.41l.58-.62c1.42-1.44,2.14-2.31,2.14-3.29,0-.64-.28-1.23-1.14-1.23-.48,0-.91.26-1.2.5l-.22-.46c.37-.33.91-.58,1.55-.58,1.21,0,1.69.88,1.69,1.7,0,1.13-.79,2.09-2.03,3.33l-.47.5v.02h2.65v.54Z" style="fill:#231815;"/><path d="m438.15,525.55h-.54l2.53-6.55h.55l-2.55,6.55Z" style="fill:#231815;"/><path d="m442.75,525.19v-5.37h-.02l-.98.57-.16-.5,1.24-.7h.57v5.99h-.65Z" style="fill:#231815;"/><path d="m447.16,525.19v-5.37h-.02l-.98.57-.16-.5,1.24-.7h.57v5.99h-.65Z" style="fill:#231815;"/><path d="m450.01,525.55h-.54l2.53-6.55h.55l-2.55,6.55Z" style="fill:#231815;"/><path d="m452.86,522.21c0-2.09.82-3.11,1.94-3.11s1.83,1.07,1.83,3.03c0,2.08-.73,3.15-1.92,3.15-1.09,0-1.85-1.07-1.85-3.07Zm3.09-.05c0-1.5-.36-2.53-1.2-2.53-.71,0-1.22.95-1.22,2.53s.44,2.57,1.19,2.57c.89,0,1.22-1.15,1.22-2.57Z" style="fill:#231815;"/><path d="m457.45,519.2h3.51v.42l-2.5,5.57h-.68l2.5-5.42v-.02h-2.83v-.55Z" style="fill:#231815;"/><path d="m464.82,521.28c-.32.52-.67.98-1.03,1.37-.06-.13-.2-.38-.29-.5.81-.83,1.6-2.23,2.07-3.65l.66.22c-.03.06-.09.08-.18.08-.22.58-.47,1.14-.76,1.69l.22.06c0,.06-.06.09-.15.1v5.22h-.54v-4.59Zm6.29-.96h-2.57v1.23h2.37v.5h-2.37v1.29h2.49v.51h-2.49v2.01h-.54v-5.54h-.74c-.33.7-.72,1.33-1.13,1.81-.1-.1-.29-.28-.41-.37.65-.74,1.27-2,1.65-3.21l.69.2c-.03.06-.09.09-.19.09-.11.32-.23.65-.37.97h3.61v.52Z" style="fill:#231815;"/><path d="m476.41,520.4c.1,1.09.27,2.13.51,2.97.45-.67.81-1.44,1.07-2.29l.66.2c-.02.06-.08.08-.18.08-.33.98-.78,1.86-1.34,2.61.33.85.73,1.38,1.19,1.38.25,0,.36-.44.42-1.54.12.12.3.24.46.29-.11,1.38-.32,1.78-.91,1.78-.65,0-1.15-.56-1.54-1.44-.52.58-1.12,1.06-1.79,1.45-.07-.11-.24-.31-.35-.42.74-.39,1.38-.93,1.93-1.59-.32-.96-.54-2.19-.65-3.49h-2.93v1.08h1.95s.28,0,.28,0v.18c-.04,1.91-.09,2.6-.26,2.81-.2.22-.41.22-.84.22-.18,0-.39,0-.61-.02-.02-.16-.07-.37-.16-.5.39.04.76.04.9.04.11,0,.2-.02.26-.08.11-.14.15-.68.18-2.17h-1.7c0,.79,0,2.69-.9,3.91-.09-.1-.3-.28-.42-.35.71-.98.79-2.37.79-3.41v-2.24h3.43c-.03-.47-.05-.95-.06-1.43l.72.04c0,.06-.06.1-.17.12,0,.42,0,.86.03,1.27h2.61v.52h-2.57Zm.82-1.9c.51.26,1.14.66,1.46.94l-.34.36c-.31-.29-.94-.7-1.45-.98l.33-.33Z" style="fill:#231815;"/></g></svg>